<?xml version="1.0" encoding="utf-8"?>
<!-- Generator: Adobe Illustrator 16.0.0, SVG Export Plug-In . SVG Version: 6.00 Build 0)  -->
<!DOCTYPE svg PUBLIC "-//W3C//DTD SVG 1.1//EN" "http://www.w3.org/Graphics/SVG/1.1/DTD/svg11.dtd">
<svg version="1.1" xmlns="http://www.w3.org/2000/svg" xmlns:xlink="http://www.w3.org/1999/xlink" x="0px" y="0px" width="1920px"
	 height="1080px" viewBox="0 0 1920 1080" enable-background="new 0 0 1920 1080" xml:space="preserve">
<g id="Warstwa_1" display="none">
	
		<image display="inline" overflow="visible" width="852" height="538" xlink:href="DCFF37FA.jpg"  transform="matrix(2.4535 0 0 2.4535 -87.0308 -177)">
	</image>
</g>
<g id="Warstwa_3">
	
		<line fill="#C7C7C7" stroke="#C7C6C5" stroke-width="7" stroke-miterlimit="10" x1="162.079" y1="146.667" x2="344.746" y2="355.667"/>
	<line fill="none" stroke="#C7C6C5" stroke-width="7" stroke-miterlimit="10" x1="490.5" y1="343.75" x2="594" y2="204.667"/>
	<line fill="none" stroke="#C7C6C5" stroke-width="7" stroke-miterlimit="10" x1="537.25" y1="484.75" x2="687.5" y2="513.5"/>
	<line fill="none" stroke="#C7C6C5" stroke-width="7" stroke-miterlimit="10" x1="364" y1="538.333" x2="291" y2="753"/>
	<line fill="none" stroke="#C7C6C5" stroke-width="7" stroke-miterlimit="10" x1="1184" y1="141" x2="1100" y2="279"/>
	<line fill="none" stroke="#C7C6C5" stroke-width="7" stroke-miterlimit="10" x1="1184" y1="656" x2="1379" y2="871"/>
	<line fill="none" stroke="#C7C6C5" stroke-width="7" stroke-miterlimit="10" x1="1632" y1="684" x2="1486" y2="892"/>
	<line fill="none" stroke="#C7C6C5" stroke-width="7" stroke-miterlimit="10" x1="1775" y1="457" x2="1973" y2="474"/>
</g>
<g id="Warstwa_2">
	<circle fill="#69B4E4" cx="963.174" cy="505.842" r="281.236"/>
	<circle fill="#69B4E4" cx="66.624" cy="52.79" r="146.155"/>
	<circle fill="#69B4E4" cx="254.154" cy="880.285" r="153.655"/>
	<circle fill="#69B4E4" cx="1698.612" cy="576.976" r="153.655"/>
	<circle fill="#69B4E4" cx="628.34" cy="164.815" r="71.159"/>
	<circle fill="#FFFFFF" cx="1894.596" cy="15.624" r="195.983"/>
	<path fill="#9ED085" d="M426.867,317.653c-68.061,0-123.237,55.176-123.237,123.237s55.176,123.236,123.237,123.236
		c68.062,0,123.238-55.175,123.238-123.236S494.929,317.653,426.867,317.653z M426.867,540.109
		c-54.796,0-99.219-44.423-99.219-99.219s44.423-99.22,99.219-99.22c54.797,0,99.22,44.424,99.22,99.22
		S481.664,540.109,426.867,540.109z"/>
	<path fill="#9ED085" d="M1409.146,856.703c-85.445,0-154.716,69.271-154.716,154.716c0,85.446,69.271,154.716,154.716,154.716
		c85.446,0,154.716-69.27,154.716-154.716C1563.861,925.974,1494.592,856.703,1409.146,856.703z M1409.146,1135.981
		c-68.793,0-124.563-55.77-124.563-124.563s55.771-124.563,124.563-124.563c68.794,0,124.563,55.771,124.563,124.563
		S1477.939,1135.981,1409.146,1135.981z"/>
	<path fill="#9ED085" d="M1240.409-39.297c-58.728,0-106.338,47.61-106.338,106.337c0,58.729,47.61,106.338,106.338,106.338
		s106.337-47.609,106.337-106.338C1346.746,8.313,1299.137-39.297,1240.409-39.297z M1240.409,152.654
		c-47.282,0-85.613-38.332-85.613-85.613c0-47.282,38.331-85.614,85.613-85.614c47.283,0,85.613,38.332,85.613,85.614
		C1326.022,114.322,1287.692,152.654,1240.409,152.654z"/>
</g>
</svg>
