<?xml version="1.0" encoding="utf-8"?>
<!-- Generator: Adobe Illustrator 16.0.0, SVG Export Plug-In . SVG Version: 6.00 Build 0)  -->
<!DOCTYPE svg PUBLIC "-//W3C//DTD SVG 1.1//EN" "http://www.w3.org/Graphics/SVG/1.1/DTD/svg11.dtd">
<svg version="1.1" id="Warstwa_1" xmlns="http://www.w3.org/2000/svg" xmlns:xlink="http://www.w3.org/1999/xlink" x="0px" y="0px"
	 width="800px" height="800px" viewBox="0 0 800 800" enable-background="new 0 0 800 800" xml:space="preserve">
<g id="Warstwa_3" display="none">
</g>
<g id="Warstwa_11">
	<rect x="-14" y="-8.364" fill="#453393" width="863" height="815"/>
</g>
<g id="dog" display="none">
	<path display="inline" fill="#DA1C5C" d="M360.687,549.447c0,0,5.198,53.908,36.773,54.102
		c31.573,0.192,36.965-54.102,36.965-54.102l-30.034-26.953l-30.034-1.54"/>
	<path display="inline" fill="#E8DDC4" d="M655.641,329.195c-24.646-16.942-58.528-60.069-61.609-79.321
		c-32.345-57.759-77.779-58.529-96.264-52.368c-23.469-29.525-93.079-25.56-120.307-18.833c-0.243,2.689-0.463,5.38-0.611,8.076
		c-0.354,6.405-0.543,12.813-0.561,19.228c-0.004,1.516-0.182,2.917-0.484,4.226l6.063,322.303c0,0,12.703,10.011,25.795,18.482
		c13.093,8.471,59.3,6.931,87.023-9.241c27.724-16.173,27.724-58.529,27.724-58.529s11.553-9.241,20.022-26.953
		c4.621,33.115,30.805,38.505,30.805,38.505s-1.674,2.575-2.655,4.453c0.352,0.135,0.702,0.268,1.034,0.423
		c0.08,0.022,0.164,0.039,0.244,0.063c4.194-4.131,16.197-18.359,46.044-56.535C684.136,358.458,661.802,348.448,655.641,329.195z"
		/>
	<path display="inline" fill="#E8DDC4" d="M584.02,368.471L546.025,469.91c0,0,5.474,21.476,23.5,28.938
		c0.654,0.199,1.288,0.424,1.885,0.691c19.087,5.147,54.731-48.497,57.143-70.366C630.996,406.977,584.02,368.471,584.02,368.471z"
		/>
	<path display="inline" fill="#E8DDC4" d="M615.432,288.684c0,0,65.397,39.37,48.813,75.82C647.66,400.954,566.307,360,566.307,360"
		/>
	<path display="inline" fill="#E8DDC4" d="M666.825,354.648c0,0-42.902,110.239-66.889,127.667
		c-23.986,17.427-62.125-90.74-62.125-90.74"/>
	<path display="inline" fill="#E8DDC4" d="M416.537,178.569c-0.345,0.154-0.698,0.291-1.042,0.454
		c-26.185-6.931-97.806-11.552-121.679,18.482c-18.481-6.161-63.919-5.391-96.264,52.368c-3.081,19.253-36.964,62.379-61.609,79.322
		c-6.161,19.252-28.496,29.263,37.735,113.977c29.411,37.618,41.502,51.992,45.864,56.358c0.017-0.009,0.038-0.013,0.055-0.021
		c0.389-0.221,0.814-0.399,1.274-0.535c-0.993-1.849-2.526-4.205-2.526-4.205s26.184-5.39,30.805-38.506
		c8.472,17.713,20.022,26.954,20.022,26.954s0,42.355,27.724,58.528c27.724,16.172,73.931,17.713,87.023,9.241
		c13.092-8.473,25.795-18.482,25.795-18.482l6.55-348.092l0.827,0.097c0.012-0.063,0.019-0.126,0.028-0.19
		c0.13-0.687,0.266-1.354,0.397-2.006C417.012,181.125,416.688,179.868,416.537,178.569z"/>
	<path display="inline" fill="#E8DDC4" d="M244.404,469.91c0,0-5.673,22.309-24.528,29.358
		c-18.856,7.054-55.551-47.895-57.997-70.093c-2.446-22.199,44.531-60.706,44.531-60.706"/>
	<path display="inline" fill="#E8DDC4" d="M174.998,288.684c0,0-65.398,39.37-48.814,75.82c16.584,36.45,97.938-4.504,97.938-4.504"
		/>
	<path display="inline" fill="#E8DDC4" d="M123.603,354.647c0,0,42.904,110.24,66.891,127.667
		c23.984,17.427,62.124-90.741,62.124-90.741"/>
</g>
<g id="Warstwa_4">
	<path fill="#996D58" d="M395.811,170.614c0,0,58.662-4.492,85.88,20.083c10.57-18.762,24.047-30.917,28.804-31.71
		c4.756-0.792,14.533,4.493,12.155,17.969s-11.892,47.565-12.684,47.565c-0.793,0,4.491,22.461,9.248,41.487
		c4.757,19.026,18.585,59.984,26.688,72.316c8.104,12.332,32.416,50.736,34.178,81.742c1.761,31.004,14.974,105.698-78.043,172.817
		c-92.486,57.605-87.201,44.922-99.886,45.979c-12.685,1.057-7.928-1.584-7.928-1.584"/>
	<path fill="#996D58" d="M405.322,412.665c-12.684,1.06-7.927-1.584-7.927-1.584"/>
	<path fill="#996D58" d="M398.289,170.614c0,0-58.662-4.492-85.88,20.083c-10.569-18.762-24.047-30.917-28.803-31.71
		c-4.756-0.792-14.534,4.493-12.154,17.969c2.378,13.477,11.891,47.565,12.684,47.565s-4.492,22.461-9.249,41.487
		c-4.757,19.026-18.585,59.984-26.689,72.316c-8.104,12.332-32.416,50.736-34.177,81.742
		c-1.761,31.004-14.973,105.698,78.042,172.817c92.487,57.605,87.202,44.922,99.886,45.979c12.686,1.057,7.929-1.584,7.929-1.584"/>
	<path fill="#996D58" d="M373.936,637.749c0,0,24.956,7.518,46.229,0c21.273-7.521,2.601-23.197,2.601-23.197"/>
</g>
<g id="Warstwa_5">
	<path fill="#5C4741" d="M395.811,212.898c0,0,27.13-1.409,50.031,27.834c18.673,32.062,15.854,66.59,17.264,77.161
		c1.409,10.57,6.694,23.958,19.378,40.87c12.685,16.912,37.523,68.17,39.109,86.668c1.585,18.498,4.756,77.16-13.741,107.285
		c-18.498,30.125-38.316,53.113-57.078,65.006c-18.762,11.892-26.688,19.289-40.43,19.818c-13.741,0.527-20.348,0-20.348,0"/>
	<path fill="#5C4741" d="M397.396,212.898c0,0-27.131-1.409-50.032,27.834c-18.673,32.062-15.854,66.59-17.264,77.161
		c-1.409,10.57-6.694,23.958-19.378,40.87c-12.685,16.912-37.523,68.17-39.109,86.668s-4.756,77.16,13.741,107.285
		s38.316,53.113,57.078,65.006c18.762,11.892,26.688,19.289,40.43,19.818c13.741,0.527,20.348,0,20.348,0"/>
</g>
<g id="Warstwa_6">
	<path fill="#A08984" d="M395.811,275.963c0,0,12.684,27.482,14.445,50.736c11.979,4.933,25.367,0.352,45.803,25.016
		c20.436,24.663,22.902,17.967,23.959,45.449c1.057,27.482-4.229,121.203-4.229,121.203s-37.698,35.229-79.979,6.69"/>
	<path fill="#A08984" d="M396.866,275.963c0,0-12.684,27.482-14.445,50.736c-11.979,4.933-25.367,0.352-45.804,25.016
		c-20.436,24.663-22.901,17.967-23.959,45.449c-1.057,27.482,4.229,121.203,4.229,121.203s37.7,35.229,79.979,6.69"/>
</g>
<g id="Warstwa_7">
	<path fill="#5C4741" d="M395.811,368.272c0,0,6.694-2.819,15.502,5.99c4.58,0.353,10.923,2.818,13.39,0
		c2.467-2.819,22.196-20.232,39.108,1.334c10.217,16.634,10.217,20.157,4.932,27.909c-5.283,7.752-18.673,15.149-27.834,11.274
		c-9.16-3.877-15.502-18.673-15.502-18.673s-2.113,0.001-7.398,2.467c-5.285,2.466-11.627,23.252-13.036,34.527
		c-1.408,11.275-3.524,36.644-3.876,44.396c-0.353,7.752-3.171,39.461-3.171,44.041s0.066,4.94,0.066,4.94l-1.652-1.065
		L395.811,368.272z"/>
	<path fill="#5C4741" d="M397.924,368.272c0,0-6.695-2.819-15.503,5.989c-4.58,0.353-10.924,2.819-13.39,0
		c-2.466-2.818-22.196-20.232-39.108,1.335c-10.218,16.633-10.218,20.156-4.933,27.908s18.673,15.15,27.834,11.275
		c9.161-3.877,15.503-18.674,15.503-18.674s2.114,0.001,7.399,2.467c5.285,2.466,11.627,23.252,13.036,34.528
		s3.523,36.644,3.876,44.396c0.352,7.752,3.172,39.461,3.172,44.041s-0.068,4.94-0.068,4.94l1.653-1.065L397.924,368.272z"/>
</g>
<g id="Warstwa_8">
	<path fill="#070808" d="M432.981,387.298c0,0,16.382-16.736,22.372-8.808c5.99,7.927,2.644,21.667,2.467,23.958
		C457.645,404.738,436.857,403.506,432.981,387.298z"/>
	<path fill="#070808" d="M358.672,387.298c0,0-16.383-16.736-22.372-8.809c-5.99,7.927-2.645,21.667-2.468,23.959
		C334.009,404.738,354.796,403.506,358.672,387.298z"/>
</g>
<g id="Warstwa_9">
	<path fill="#070808" d="M529.696,282.479c0,0,8.633,19.378,0,28.363c-8.633,8.985-13.389,5.461-20.26-0.881
		c-6.87-6.342-8.809-10.746-8.984-13.917c-0.175-3.171,1.586-6.342,4.405-8.632c2.818-2.29,5.108-4.933,8.808-4.933
		C517.365,282.479,530.048,280.189,529.696,282.479z"/>
</g>
<g id="Warstwa_10">
	<path fill="#A08984" d="M498.339,292.698c0,0,0.228-0.065,0.646-0.185c4.635-1.331,32.69-9.401,37.052-11.051
		c4.758-1.8-3.697-29.811-9.863-32.101c-6.167-2.29-28.894,32.943-31.535,37.875C491.995,292.169,497.69,292.883,498.339,292.698z"
		/>
	<path fill="#070808" d="M269.14,276.74c0,0-8.632,19.378,0,28.363c8.633,8.985,13.389,5.461,20.26-0.881
		c6.87-6.342,8.81-10.746,8.984-13.917c0.175-3.171-1.585-6.342-4.405-8.632c-2.818-2.29-5.107-4.933-8.808-4.933
		C281.472,276.74,268.788,274.45,269.14,276.74z"/>
	<path fill="#A08984" d="M300.497,286.959c0,0-0.228-0.065-0.647-0.186c-4.635-1.331-32.689-9.401-37.052-11.051
		c-4.756-1.8,3.698-29.811,9.865-32.101s28.892,32.943,31.534,37.876S301.146,287.144,300.497,286.959z"/>
</g>
</svg>
