<?xml version="1.0" encoding="utf-8"?>
<!-- Generator: Adobe Illustrator 16.0.0, SVG Export Plug-In . SVG Version: 6.00 Build 0)  -->
<!DOCTYPE svg PUBLIC "-//W3C//DTD SVG 1.1//EN" "http://www.w3.org/Graphics/SVG/1.1/DTD/svg11.dtd">
<svg version="1.1" xmlns="http://www.w3.org/2000/svg" xmlns:xlink="http://www.w3.org/1999/xlink" x="0px" y="0px" width="800px"
	 height="800px" viewBox="0 0 800 800" enable-background="new 0 0 800 800" xml:space="preserve">
<g id="Warstwa_1" display="none">
	
		<image display="inline" overflow="visible" width="1500" height="1500" xlink:href="CEF45A1.jpg"  transform="matrix(0.4566 0 0 0.4566 64.1074 49.1074)">
	</image>
</g>
<g id="Warstwa_12">
	<rect x="-84.943" y="-65.949" fill="#6ECBE7" width="985.451" height="1009.449"/>
</g>
<g id="Warstwa_3">
	<path fill="#B5B5B6" d="M359.286,632.068c0,0,12.807,30.654,48.141,29.309s47.146-29.457,48.791-37.232
		c1.644-7.776-30.504-26.915-30.953-26.915c-0.448,0-30.055-9.57-31.55-9.57s-20.336,12.112-20.336,12.112l-14.093,11.962"/>
</g>
<g id="Warstwa_9">
</g>
<g id="Warstwa_2">
	<path fill="#9A9CA3" d="M405.885,224.307c0,0,34.707-2.243,40.09-2.243c5.384,0,30.504-0.449,31.85,1.121
		c4.934-3.364,51.587-44.41,54.278-48.896c4.71-4.71,43.737-44.186,47.325-46.877c3.589-2.691,26.691-27.587,36.111,16.149
		c1.794,8.748,4.935,53.606,5.384,55.849c0.448,2.243,1.569,36.559,1.121,39.475c-0.449,2.917-0.897,37.457-1.57,41.27
		c-0.673,3.813-3.589,34.317-5.384,39.7c-1.794,5.383-7.85,24.448-13.682,29.382c2.019,2.243,23.775,36.111,17.047,79.175
		c-6.729,43.063-8.972,57.867-27.813,81.193c-18.841,23.327-32.746,32.747-32.746,32.747s-24.448,21.756-26.691,26.691
		c-2.243,4.934-11.502,25.344-17.189,34.092c-7.258,7.625-16.902,17.271-23.183,20.41s-24.448,10.99-40.148,10.766
		c-16.148-1.121-34.766-8.298-37.232-10.989c-2.467-2.692-7.286-5.607-7.567-10.542
		C405.602,607.846,405.885,224.307,405.885,224.307z"/>
	<path fill="#9A9CA3" d="M407.3,224.308c0,0-34.707-2.243-40.09-2.243c-5.383,0-30.503-0.449-31.849,1.121
		c-4.935-3.364-51.587-44.41-54.278-48.896c-4.71-4.71-43.737-44.186-47.326-46.877s-26.691-27.587-36.111,16.149
		c-1.794,8.747-4.935,53.606-5.383,55.849c-0.449,2.243-1.57,36.56-1.121,39.475c0.448,2.916,0.897,37.457,1.57,41.27
		c0.673,3.813,3.588,34.317,5.383,39.7c1.795,5.383,7.85,24.448,13.682,29.383c-2.019,2.242-23.775,36.11-17.046,79.174
		s8.972,57.867,27.813,81.193c18.84,23.327,32.747,32.747,32.747,32.747s24.448,21.756,26.69,26.691
		c2.243,4.934,11.502,25.344,17.19,34.092c7.258,7.625,16.902,17.271,23.183,20.41c6.28,3.14,24.447,10.99,40.148,10.766
		c16.149-1.121,34.766-8.298,37.232-10.989c2.467-2.692,7.286-5.607,7.567-10.542C407.582,607.846,407.3,224.308,407.3,224.308z"/>
</g>
<g id="Warstwa_4">
	<path fill="#E54C8A" d="M511.842,271.708c0,0,8.672-29.008,29.009-46.354c16.447-20.037,46.951-73.866,52.035-69.082
		s11.365,5.083,12.561,58.914c1.195,53.83-0.896,73.867-3.888,82.838s-7.178,25.121-10.168,25.719s-4.637,0.972-6.505-0.299
		c-1.869-1.271-4.037-3.439-4.037-3.439l-1.271-1.42l-0.076-0.673c0,0,4.337-1.645,6.505-0.748c2.169,0.896,1.495-0.374,1.122-1.42
		c-0.374-1.047-17.868-13.383-21.008-13.309c-0.599-0.896,5.083-1.943,6.878-1.794c1.793,0.149,4.335-0.374,4.485-0.823
		c0.149-0.448-2.841-5.979-13.606-6.801c-10.767-0.822-11.813-0.3-12.784-1.122c-0.974-0.822-1.795-1.271-0.674-2.168
		c1.122-0.897,9.793-7.329,10.393-7.927c0.599-0.598,1.42-1.346,0.896-1.87c-0.523-0.523-13.682,0.299-17.494,1.122
		c-3.813,0.822-12.486,1.869-14.355,1.869c-1.868,0-1.646,1.196-2.617-0.299c-0.971-1.495,6.729-6.43,8.972-7.178
		c2.243-0.748,2.991-0.971,1.646-1.719c-1.346-0.748-22.954-0.075-24.599,0.075C511.618,273.95,511.842,271.708,511.842,271.708z"/>
	<path fill="#E54C8A" d="M301.016,267.394c0,0-8.672-29.008-29.008-46.353c-16.447-20.037-46.951-73.866-52.036-69.082
		c-5.084,4.785-11.364,5.084-12.56,58.914c-1.196,53.83,0.896,73.867,3.888,82.838c2.991,8.972,7.178,25.121,10.168,25.719
		c2.99,0.598,4.636,0.972,6.505-0.299s4.037-3.439,4.037-3.439l1.271-1.421l0.075-0.672c0,0-4.336-1.646-6.504-0.748
		c-2.168,0.897-1.495-0.373-1.122-1.42c0.374-1.047,17.868-13.383,21.008-13.309c0.599-0.897-5.083-1.943-6.877-1.794
		c-1.794,0.149-4.335-0.374-4.486-0.822c-0.15-0.449,2.84-5.979,13.606-6.802s11.813-0.299,12.785-1.121
		c0.973-0.823,1.794-1.271,0.673-2.168c-1.122-0.897-9.793-7.33-10.392-7.928c-0.599-0.598-1.42-1.346-0.897-1.869
		c0.522-0.523,13.682,0.299,17.494,1.122c3.813,0.822,12.486,1.869,14.355,1.869s1.645,1.196,2.617-0.299
		c0.971-1.495-6.729-6.43-8.972-7.177c-2.243-0.748-2.991-0.972-1.646-1.719c1.346-0.748,22.954-0.076,24.598,0.074
		S301.016,267.394,301.016,267.394z"/>
</g>
<g id="Warstwa_6">
	<path fill="#8FC749" d="M472.891,456.757c0,0,8.522-30.504,36.111-33.195c23.551,2.917,32.521,13.009,33.643,26.691
		c1.122,13.682-6.952,30.504-10.989,33.195c-4.038,2.69-19.738,12.784-37.009,4.934
		C477.377,480.532,470.631,462.703,472.891,456.757z"/>
</g>
<g id="Warstwa_7">
	<path fill="#070808" d="M491.506,435.873c0,0,13.757-10.317,23.326-5.832c9.57,4.486,16.598,8.823,17.346,17.645
		c0.748,8.822-1.347,20.785-2.094,21.683c-0.748,0.896-4.935,11.362-16.598,14.803c-11.813,0-20.784-4.037-24.374-8.972
		C485.524,470.265,478.945,448.731,491.506,435.873z"/>
	<circle fill="#FFFFFF" cx="513.954" cy="438.775" r="3.835"/>
	<path fill="#8FC749" d="M341.667,454.247c0,0-8.523-30.503-36.11-33.195c-23.551,2.916-32.522,13.009-33.644,26.691
		c-1.122,13.682,6.953,30.503,10.991,33.194c4.037,2.692,19.737,12.785,37.008,4.936
		C337.182,478.022,343.927,460.192,341.667,454.247z"/>
	<path fill="#070808" d="M323.052,433.362c0,0-13.756-10.316-23.326-5.831s-16.597,8.822-17.345,17.645
		c-0.748,8.821,1.346,20.784,2.093,21.682c0.748,0.897,4.935,11.363,16.598,14.803c11.813,0,20.785-4.037,24.373-8.972
		C329.033,467.755,335.612,446.222,323.052,433.362z"/>
	<circle fill="#FFFFFF" cx="300.604" cy="436.265" r="3.836"/>
</g>
<g id="Warstwa_8">
	<path fill="#E54C8A" d="M405.885,568.521v27.577c0,0,7.456-4.962,7.456-5.298c0-0.337,4.598-8.691,6.393-9.478
		c1.793-0.784,7.794-4.372,9.195-2.858c1.346,1.457,0,6.279-0.953,7.345c-0.954,1.065,8.579-2.915,9.532-4.766
		s2.187-12.337-8.972-14.13C418.443,566.632,408.577,569.511,405.885,568.521z"/>
	<path fill="#E54C8A" d="M406.101,568.521v27.577c0,0-7.456-4.962-7.456-5.298c0-0.337-4.599-8.691-6.393-9.478
		c-1.794-0.784-7.794-4.372-9.196-2.858c-1.346,1.457,0,6.279,0.953,7.345s-8.579-2.915-9.532-4.766s-2.187-12.337,8.972-14.13
		C393.542,566.632,403.406,569.511,406.101,568.521z"/>
</g>
<g id="Warstwa_11">
	<circle fill="#7A7D7F" cx="470.274" cy="578.804" r="3.588"/>
	<circle fill="#7A7D7F" cx="498.085" cy="591.008" r="3.589"/>
	<circle fill="#7A7D7F" cx="464.292" cy="608.294" r="3.588"/>
	<circle fill="#7A7D7F" cx="505.262" cy="566.893" r="3.588"/>
</g>
<g id="Warstwa_10" opacity="0.51">
	<path fill="none" stroke="#000000" stroke-miterlimit="10" d="M513.953,564.482c0,0,60.989-22.728,87.007-19.737
		c26.019,2.99,50.54,4.813,55.624,9.732"/>
	<path fill="none" stroke="#000000" stroke-miterlimit="10" d="M501.674,579.885c0,0,68.186-3.738,82.839,2.691
		c19.738,4.187,67.585,15.551,72.819,20.635"/>
	<path fill="none" stroke="#000000" stroke-miterlimit="10" d="M464.292,610.089c0,0,24.972,24.373,26.767,52.483"/>
	<path fill="none" stroke="#000000" stroke-miterlimit="10" d="M479.844,603.211c0,0,55.473,33.194,65.193,62.054"/>
	<path fill="none" stroke="#000000" stroke-miterlimit="10" d="M487.32,588.707c0,0,60.708,13.456,74.016,20.783
		s62.054,29.009,68.035,38.129"/>
	<circle fill="#7A7D7F" cx="342.725" cy="581.494" r="3.589"/>
	<circle fill="#7A7D7F" cx="314.914" cy="593.698" r="3.589"/>
	<circle fill="#7A7D7F" cx="348.707" cy="610.986" r="3.589"/>
	<circle fill="#7A7D7F" cx="307.737" cy="569.585" r="3.588"/>
	<path fill="none" stroke="#000000" stroke-miterlimit="10" d="M299.045,567.175c0,0-60.989-22.729-87.006-19.738
		c-26.018,2.99-50.54,4.813-55.624,9.733"/>
	<path fill="none" stroke="#000000" stroke-miterlimit="10" d="M311.325,582.576c0,0-68.185-3.738-82.839,2.691
		c-19.738,4.188-67.585,15.55-72.819,20.635"/>
	<path fill="none" stroke="#000000" stroke-miterlimit="10" d="M348.707,612.78c0,0-24.972,24.373-26.766,52.484"/>
	<path fill="none" stroke="#000000" stroke-miterlimit="10" d="M333.155,605.902c0,0-55.474,33.195-65.193,62.054"/>
	<path fill="none" stroke="#000000" stroke-miterlimit="10" d="M325.679,591.397c0,0-60.708,13.457-74.016,20.784
		s-62.053,29.008-68.035,38.13"/>
</g>
</svg>
