<?xml version="1.0" encoding="utf-8"?>
<!-- Generator: Adobe Illustrator 16.0.0, SVG Export Plug-In . SVG Version: 6.00 Build 0)  -->
<!DOCTYPE svg PUBLIC "-//W3C//DTD SVG 1.1//EN" "http://www.w3.org/Graphics/SVG/1.1/DTD/svg11.dtd">
<svg version="1.1" xmlns="http://www.w3.org/2000/svg" xmlns:xlink="http://www.w3.org/1999/xlink" x="0px" y="0px" width="800px"
	 height="800px" viewBox="0 0 800 800" enable-background="new 0 0 800 800" xml:space="preserve">
<g id="Warstwa_2" display="none">
	
		<image overflow="visible" width="1024" height="1024" xlink:href="35EA44CB.jpg"  transform="matrix(0.7084 0 0 0.7084 37.3032 28.3042)">
	</image>
	<path display="inline" fill="#FFFFFF" stroke="#000000" stroke-width="6" stroke-miterlimit="10" d="M335.333,533
		c0,0,61,41.667,131.667,0"/>
</g>
<g id="dog" display="none">
	<path display="inline" fill="#DA1C5C" d="M360.687,549.447c0,0,5.198,53.908,36.773,54.102
		c31.574,0.192,36.965-54.102,36.965-54.102l-30.034-26.953l-30.034-1.54"/>
	<path display="inline" fill="#E8DDC4" d="M655.641,329.195c-24.645-16.942-58.528-60.069-61.609-79.321
		c-32.345-57.759-77.78-58.529-96.264-52.368c-23.469-29.525-93.079-25.56-120.307-18.833c-0.243,2.689-0.462,5.38-0.611,8.076
		c-0.354,6.405-0.543,12.813-0.56,19.228c-0.004,1.516-0.182,2.917-0.485,4.226l6.064,322.303c0,0,12.703,10.011,25.795,18.482
		s59.299,6.931,87.023-9.241c27.724-16.173,27.724-58.529,27.724-58.529s11.552-9.241,20.022-26.953
		c4.621,33.115,30.805,38.505,30.805,38.505s-1.674,2.575-2.655,4.453c0.351,0.134,0.702,0.267,1.034,0.423
		c0.08,0.022,0.164,0.039,0.244,0.062c4.194-4.131,16.197-18.359,46.044-56.535C684.136,358.458,661.802,348.448,655.641,329.195z"
		/>
	<path display="inline" fill="#E8DDC4" d="M584.02,368.471L546.025,469.91c0,0,5.474,21.476,23.5,28.939
		c0.654,0.199,1.288,0.423,1.885,0.691c19.087,5.147,54.731-48.497,57.142-70.366C630.997,406.977,584.02,368.471,584.02,368.471z"
		/>
	<path display="inline" fill="#E8DDC4" d="M615.432,288.684c0,0,65.398,39.37,48.813,75.82c-16.584,36.45-97.938-4.504-97.938-4.504
		"/>
	<path display="inline" fill="#E8DDC4" d="M666.826,354.648c0,0-42.903,110.239-66.889,127.666
		c-23.986,17.427-62.125-90.74-62.125-90.74"/>
	<path display="inline" fill="#E8DDC4" d="M416.538,178.569c-0.345,0.154-0.699,0.291-1.042,0.454
		c-26.185-6.931-97.806-11.552-121.679,18.482c-18.482-6.161-63.919-5.391-96.264,52.368c-3.081,19.253-36.964,62.379-61.609,79.322
		c-6.162,19.252-28.496,29.263,37.735,113.977c29.411,37.618,41.502,51.992,45.864,56.358c0.017-0.008,0.038-0.012,0.055-0.02
		c0.389-0.221,0.814-0.4,1.274-0.535c-0.993-1.849-2.526-4.205-2.526-4.205s26.184-5.39,30.805-38.506
		c8.471,17.713,20.022,26.954,20.022,26.954s0,42.355,27.724,58.528c27.724,16.172,73.931,17.713,87.023,9.241
		c13.092-8.472,25.795-18.482,25.795-18.482l6.55-348.092l0.827,0.097c0.012-0.063,0.019-0.126,0.029-0.19
		c0.129-0.687,0.265-1.354,0.397-2.006C417.012,181.125,416.688,179.868,416.538,178.569z"/>
	<path display="inline" fill="#E8DDC4" d="M244.404,469.91c0,0-5.673,22.309-24.529,29.359
		c-18.856,7.053-55.551-47.895-57.997-70.093c-2.446-22.2,44.531-60.706,44.531-60.706"/>
	<path display="inline" fill="#E8DDC4" d="M174.998,288.684c0,0-65.398,39.37-48.814,75.82c16.584,36.45,97.938-4.504,97.938-4.504"
		/>
	<path display="inline" fill="#E8DDC4" d="M123.603,354.647c0,0,42.904,110.24,66.89,127.667
		c23.985,17.427,62.124-90.741,62.124-90.741"/>
</g>
<g id="Warstwa_5">
	<path fill="#F26C6D" d="M866.567,854.567c0,6.628-5.372,12-12,12H-10.888c-6.627,0-12-5.372-12-12V-7.889c0-6.627,5.373-12,12-12
		h865.456c6.628,0,12,5.373,12,12V854.567z"/>
</g>
<g id="Warstwa_3">
	<circle fill="#FDF27A" cx="397.556" cy="379.113" r="221.626"/>
</g>
<g id="Warstwa_4">
	<circle cx="307" cy="351.78" r="25.333"/>
	<circle cx="485.667" cy="353.779" r="25.333"/>
	<path fill="#F9F9FA" d="M290.458,450c0,0,113.217,49.083,214.195,5.663c-53.459,124.595-201.055,73.624-214.195-1.888"/>
</g>
</svg>
