<?xml version="1.0" encoding="utf-8"?>
<!-- Generator: Adobe Illustrator 16.0.0, SVG Export Plug-In . SVG Version: 6.00 Build 0)  -->
<!DOCTYPE svg PUBLIC "-//W3C//DTD SVG 1.1//EN" "http://www.w3.org/Graphics/SVG/1.1/DTD/svg11.dtd">
<svg version="1.1" xmlns="http://www.w3.org/2000/svg" xmlns:xlink="http://www.w3.org/1999/xlink" x="0px" y="0px" width="800px"
	 height="800px" viewBox="0 0 800 800" enable-background="new 0 0 800 800" xml:space="preserve">
<g id="Warstwa_1" display="none">
	
		<image display="inline" overflow="visible" width="1920" height="1920" xlink:href="5937963C.jpg"  transform="matrix(0.5394 0 0 0.5394 -143.8618 -136.7622)">
	</image>
</g>
<g id="Warstwa_6">
	<rect x="-48.387" y="-33.388" fill="#E08E57" width="886.456" height="865.456"/>
</g>
<g id="Warstwa_2">
	<path fill="#DA1C5C" d="M360.687,549.447c0,0,5.198,53.908,36.773,54.102c31.574,0.192,36.965-54.102,36.965-54.102l-30.034-26.953
		l-30.034-1.54"/>
	<path fill="#E8DDC4" d="M655.641,329.195c-24.645-16.942-58.528-60.069-61.609-79.321c-32.345-57.759-77.78-58.529-96.264-52.368
		c-23.469-29.525-93.079-25.56-120.307-18.833c-0.243,2.689-0.462,5.38-0.611,8.076c-0.354,6.405-0.543,12.813-0.56,19.228
		c-0.004,1.516-0.182,2.917-0.485,4.226l6.064,322.303c0,0,12.703,10.011,25.795,18.482s59.299,6.931,87.023-9.241
		c27.724-16.173,27.724-58.529,27.724-58.529s11.552-9.241,20.022-26.953c4.621,33.115,30.805,38.505,30.805,38.505
		s-1.674,2.575-2.655,4.453c0.351,0.134,0.702,0.267,1.034,0.423c0.08,0.022,0.164,0.039,0.244,0.062
		c4.194-4.131,16.197-18.359,46.044-56.535C684.136,358.458,661.802,348.448,655.641,329.195z"/>
	<path fill="#E8DDC4" d="M584.02,368.471L546.025,469.91c0,0,5.474,21.476,23.5,28.939c0.654,0.199,1.288,0.423,1.885,0.691
		c19.087,5.147,54.731-48.497,57.142-70.366C630.997,406.977,584.02,368.471,584.02,368.471z"/>
	<path fill="#E8DDC4" d="M615.432,288.684c0,0,65.398,39.37,48.813,75.82c-16.584,36.45-97.938-4.504-97.938-4.504"/>
	<path fill="#E8DDC4" d="M666.826,354.648c0,0-42.903,110.239-66.889,127.666c-23.986,17.427-62.125-90.74-62.125-90.74"/>
	<path fill="#E8DDC4" d="M416.538,178.569c-0.345,0.154-0.699,0.291-1.042,0.454c-26.185-6.931-97.806-11.552-121.679,18.482
		c-18.482-6.161-63.919-5.391-96.264,52.368c-3.081,19.253-36.964,62.379-61.609,79.322c-6.162,19.252-28.496,29.263,37.735,113.977
		c29.411,37.618,41.502,51.992,45.864,56.358c0.017-0.008,0.038-0.012,0.055-0.02c0.389-0.221,0.814-0.4,1.274-0.535
		c-0.993-1.849-2.526-4.205-2.526-4.205s26.184-5.39,30.805-38.506c8.471,17.713,20.022,26.954,20.022,26.954
		s0,42.355,27.724,58.528c27.724,16.172,73.931,17.713,87.023,9.241c13.092-8.472,25.795-18.482,25.795-18.482l6.55-348.092
		l0.827,0.097c0.012-0.063,0.019-0.126,0.029-0.19c0.129-0.687,0.265-1.354,0.397-2.006
		C417.012,181.125,416.688,179.868,416.538,178.569z"/>
	<path fill="#E8DDC4" d="M244.404,469.91c0,0-5.673,22.309-24.529,29.359c-18.856,7.053-55.551-47.895-57.997-70.093
		c-2.446-22.2,44.531-60.706,44.531-60.706"/>
	<path fill="#E8DDC4" d="M174.998,288.684c0,0-65.398,39.37-48.814,75.82c16.584,36.45,97.938-4.504,97.938-4.504"/>
	<path fill="#E8DDC4" d="M123.603,354.647c0,0,42.904,110.24,66.89,127.667c23.985,17.427,62.124-90.741,62.124-90.741"/>
</g>
<g id="Warstwa_3">
	<path d="M402.966,416.153c-0.086-0.005-0.174-0.018-0.261-0.026c-0.132,0.006-0.263-0.006-0.396-0.008
		c-1.553,0.489-3.258,0.443-4.727-0.33c-0.831,0.06-1.65,0.133-2.383,0.16c-1.671,0.061-3.337,0.182-5.005,0.228l5.536,88.604
		c0,0,22.714-10.012,30.03-15.017c7.315-5.006,7.316-11.167,7.316-11.167s-6.931-2.695-15.018-5.392
		c-4.62-6.931,5.391-14.247,7.701-14.247s2.696,3.466,1.541,6.932c-1.155,3.465,4.62,3.081,10.011,2.694
		c5.39-0.386,13.093-12.706,13.861-36.579C433.381,422.187,417.184,417.611,402.966,416.153z"/>
	<path d="M417.869,465.631c0,0-1.18,7.064,2.873,8.483c4.054,1.419,4.153,6.89,4.153,6.89s-8.664,2.021-9.675,0.866
		s-6.354-8.23-7.653-10.83c-1.3-2.599-1.155-8.23-1.155-8.23l-0.004-3.754"/>
	<path d="M420.446,462.255c0,0-3.371,3.906-2.686,6.769c0.685,2.861-7.594,2.373-8.172,1.617c-0.577-0.756-4.188-9.131-4.188-9.131
		l2.888-4.62"/>
	<path d="M397.583,415.789c-0.832,0.059-1.649,0.134-2.383,0.16c-2.252,0.081-4.495,0.273-6.747,0.23
		c-14.163,1.481-30.283,6.059-47.985,15.826c0.77,23.873,8.472,36.193,13.862,36.579c5.39,0.387,11.166,0.771,10.011-2.694
		c-1.155-3.466-0.77-6.932,1.541-6.932c2.311,0,12.321,7.316,7.701,14.247c-8.086,2.696-15.017,5.392-15.017,5.392
		s0.001,6.161,7.316,11.167c7.316,5.005,30.03,15.017,30.03,15.017l5.526-88.443C400.136,416.571,398.779,416.42,397.583,415.789z"
		/>
	<path d="M373.774,465.631c0,0,1.18,7.064-2.874,8.483s-4.152,6.89-4.152,6.89s8.664,2.021,9.674,0.866s6.354-8.23,7.653-10.83
		c1.3-2.599,1.155-8.23,1.155-8.23l0.004-3.754"/>
	<path d="M371.198,462.255c0,0,3.371,3.906,2.685,6.769c-0.685,2.861,7.594,2.373,8.172,1.617c0.577-0.756,4.188-9.131,4.188-9.131
		l-2.888-4.62"/>
	<path d="M385.06,416.59c0,0,15.542-2.497,26.786,0.852s-6.011,12.374-6.011,12.374"/>
</g>
<g id="Warstwa_4">
	<circle fill="#A59C89" cx="307.549" cy="495.347" r="5.198"/>
	<circle fill="#A49B88" cx="349.135" cy="512.289" r="5.198"/>
	<circle fill="#A49B88" cx="317.946" cy="529.81" r="5.198"/>
	<circle fill="#A59C89" cx="481.596" cy="495.058" r="5.198"/>
	<circle fill="#A49B88" cx="440.009" cy="511.999" r="5.199"/>
	<circle fill="#A49B88" cx="471.199" cy="529.52" r="5.198"/>
	<path fill="#020202" d="M296.382,364.523c0,0,44.282-13.862,56.989,0C347.21,346.811,326.032,311.386,296.382,364.523z"/>
	<path fill="#020202" d="M494.494,367.525c0,0-44.282-13.862-56.988,0C443.667,349.813,464.846,314.388,494.494,367.525z"/>
</g>
<g id="Warstwa_5">
</g>
</svg>
