<?xml version="1.0" encoding="utf-8"?>
<!-- Generator: Adobe Illustrator 16.0.0, SVG Export Plug-In . SVG Version: 6.00 Build 0)  -->
<!DOCTYPE svg PUBLIC "-//W3C//DTD SVG 1.1//EN" "http://www.w3.org/Graphics/SVG/1.1/DTD/svg11.dtd">
<svg version="1.1" xmlns="http://www.w3.org/2000/svg" xmlns:xlink="http://www.w3.org/1999/xlink" x="0px" y="0px" width="800px"
	 height="800px" viewBox="0 0 800 800" enable-background="new 0 0 800 800" xml:space="preserve">
<g id="Warstwa_2">
	
		<image display="none" overflow="visible" width="1500" height="1500" xlink:href="1D38B706.jpg"  transform="matrix(0.5208 0 0 0.5208 9.3936 49.8921)">
	</image>
</g>
<g id="Warstwa_8">
	<rect x="-18.388" y="-21.388" fill="#C793C2" width="859.457" height="845.958"/>
</g>
<g id="dog" display="none">
	<path display="inline" fill="#DA1C5C" d="M360.687,549.447c0,0,5.198,53.908,36.773,54.102
		c31.574,0.192,36.965-54.102,36.965-54.102l-30.034-26.953l-30.034-1.54"/>
	<path display="inline" fill="#E8DDC4" d="M655.641,329.195c-24.645-16.942-58.528-60.069-61.609-79.321
		c-32.345-57.759-77.78-58.529-96.264-52.368c-23.469-29.525-93.079-25.56-120.307-18.833c-0.243,2.689-0.462,5.38-0.611,8.076
		c-0.354,6.405-0.543,12.813-0.56,19.228c-0.004,1.516-0.182,2.917-0.485,4.226l6.064,322.303c0,0,12.703,10.011,25.795,18.482
		s59.299,6.931,87.023-9.241c27.724-16.173,27.724-58.529,27.724-58.529s11.552-9.241,20.022-26.953
		c4.621,33.115,30.805,38.505,30.805,38.505s-1.674,2.575-2.655,4.453c0.351,0.134,0.702,0.267,1.034,0.423
		c0.08,0.022,0.164,0.039,0.244,0.062c4.194-4.131,16.197-18.359,46.044-56.535C684.136,358.458,661.802,348.448,655.641,329.195z"
		/>
	<path display="inline" fill="#E8DDC4" d="M584.02,368.471L546.025,469.91c0,0,5.474,21.476,23.5,28.939
		c0.654,0.199,1.288,0.423,1.885,0.691c19.087,5.147,54.731-48.497,57.142-70.366C630.997,406.977,584.02,368.471,584.02,368.471z"
		/>
	<path display="inline" fill="#E8DDC4" d="M615.432,288.684c0,0,65.398,39.37,48.813,75.82c-16.584,36.45-97.938-4.504-97.938-4.504
		"/>
	<path display="inline" fill="#E8DDC4" d="M666.826,354.648c0,0-42.903,110.239-66.889,127.666
		c-23.986,17.427-62.125-90.74-62.125-90.74"/>
	<path display="inline" fill="#E8DDC4" d="M416.538,178.569c-0.345,0.154-0.699,0.291-1.042,0.454
		c-26.185-6.931-97.806-11.552-121.679,18.482c-18.482-6.161-63.919-5.391-96.264,52.368c-3.081,19.253-36.964,62.379-61.609,79.322
		c-6.162,19.252-28.496,29.263,37.735,113.977c29.411,37.618,41.502,51.992,45.864,56.358c0.017-0.008,0.038-0.012,0.055-0.02
		c0.389-0.221,0.814-0.4,1.274-0.535c-0.993-1.849-2.526-4.205-2.526-4.205s26.184-5.39,30.805-38.506
		c8.471,17.713,20.022,26.954,20.022,26.954s0,42.355,27.724,58.528c27.724,16.172,73.931,17.713,87.023,9.241
		c13.092-8.472,25.795-18.482,25.795-18.482l6.55-348.092l0.827,0.097c0.012-0.063,0.019-0.126,0.029-0.19
		c0.129-0.687,0.265-1.354,0.397-2.006C417.012,181.125,416.688,179.868,416.538,178.569z"/>
	<path display="inline" fill="#E8DDC4" d="M244.404,469.91c0,0-5.673,22.309-24.529,29.359
		c-18.856,7.053-55.551-47.895-57.997-70.093c-2.446-22.2,44.531-60.706,44.531-60.706"/>
	<path display="inline" fill="#E8DDC4" d="M174.998,288.684c0,0-65.398,39.37-48.814,75.82c16.584,36.45,97.938-4.504,97.938-4.504"
		/>
	<path display="inline" fill="#E8DDC4" d="M123.603,354.647c0,0,42.904,110.24,66.89,127.667
		c23.985,17.427,62.124-90.741,62.124-90.741"/>
</g>
<g id="Warstwa_3">
	<ellipse fill="#FDC722" cx="389.903" cy="394.295" rx="199.903" ry="207.532"/>
	<path fill="#FDC722" d="M245.701,247.137c0,0,43.296-72.2,103.381-89.367c58.368-12.589,74.391-13.734,93.275-10.3
		c18.884,3.433,45.779,12.589,49.213,13.734c3.434,1.144-28.612-1.145-48.068-1.145s1.145-1.717,29.757,10.3
		c28.611,20.029,30.901,25.751,21.173,22.89c-9.728-2.861-46.924-13.162-46.924-13.162l-13.733-5.723l-10.301-0.572l12.017,9.537
		c0,0,32.046,13.498,34.907,13.139c2.861-0.359,6.866,2.502,9.155,4.218c2.29,1.717,11.923-0.525,11.111,10.896
		c-0.811,11.421,3.768,22.293,2.051,30.305c-1.717,8.011-10.301,31.473-10.301,31.473"/>
	<path fill="#FDC722" d="M478.42,156.932c0,0,18.014,2.841,16.584,5.702c-1.432,2.861-16.595,0.286-20.602,0
		c-4.005-0.287-14.906-2.014-16.595-2.183c-1.688-0.169-4.863-0.106-9.728-1.537c-4.863-1.431-3.72-1.104-8.584-1.982
		c-4.863-0.879-18.311-2.023-18.311-2.023"/>
	<path fill="#FDC722" d="M438.081,176.16c0,0-6.33-3.8-1.456,7.646c4.874,11.445,8.021,18.885-3.137,15.452
		c-11.159-3.434-27.182-12.589-29.185-17.167s-2.289-16.309-2.289-16.309s2.289-3.434,3.72-3.434s5.723,1.145,6.867,0
		c1.144-1.144,8.939,0,8.939,0l20.816,1.624"/>
	<path fill="#FDC722" d="M434.834,178.125c0,0,25.835,9.688,35.277,13.407c9.441,3.719,16.309,5.722,21.459,11.159
		c5.149,5.436,2.662,4.578,8.055,8.87c5.393,4.292,8.749,5.311,11.115,10.586c2.365,5.276,5.723,8.583,3.434,12.017
		s-2.575,4.292-9.156,4.864c-6.58,0.572-9.441,4.578-26.322-2.575c-16.882-7.153-39.941-20.601-43.861-24.893
		c-3.921-4.292-7.928-8.297-12.648-14.878c-4.721-6.581-5.579-12.221-9.584-18.557c-4.006-6.335-5.437-8.338-6.009-9.196
		s-4.578-3.147-4.578-3.147"/>
	<path fill="#FDC722" d="M490.271,201.435c0,0,25.514,14.48,34.293,36.051c8.779,21.571-2.567,27.866-9.626,27.007
		c-7.06-0.858-29.091-3.147-36.243-4.864c-7.154-1.717-14.307-0.287-36.338-9.729c-22.031-9.441-22.604-8.583-49.784-20.601"/>
	<path fill="#FDC722" d="M519.69,228.384c0,0,29.403,24.709,36.979,48.005c7.576,23.296-3.869,31.021-5.587,31.879
		c-1.716,0.858-30.613,7.439-68.954-4.005c-38.34-11.445-51.787-16.595-58.368-18.884"/>
	<path fill="#FDC722" d="M434.156,171.504c0,0,2.763,9.013,6.104,9.466c3.34,0.453,5.342,1.597,11.444,6.557
		c6.104,4.959,11.827,8.361,12.208,12.574c0.382,4.212,4.96,20.235-14.878,17.946c-19.838-2.289-41.964-4.993-49.977-16.612
		c-8.011-11.619-14.114-23.827-18.692-29.931"/>
	<path fill="#FDC722" d="M386.549,150.2c0,0,40.739-24.094,68.97-22.186c28.231,1.908,30.521,5.722,32.428,8.011
		c1.907,2.289,6.104,4.578,0,4.96c-6.104,0.381-9.537,1.526-16.786,1.144c-7.248-0.381-8.121-0.381-13.025-0.763
		c-4.904-0.381-4.904-0.763-8.338-0.763c-3.435,0-3.564-4.681-10.954,0.382c-7.391,5.063-6.023,5.459-15.083,9.215
		s-11.729,5.952-19.359,9.241c-7.631,3.289-18.694,12.063-21.365,12.063"/>
	<path fill="#FDC722" d="M449.797,140.603c0,0-9.399,4.291-17.479,5.197c-8.081,0.906-13.802,0.906-13.802,0.906
		s7.247-5.341,8.391-6.104c1.146-0.763,10.302-4.96,13.734-5.723c3.434-0.763,5.722,0.382,9.156,0
		c3.434-0.382,4.96-0.269,4.96-0.269"/>
	<path fill="#FDC722" d="M402.015,142.163c0,0-33.704,10.289-48.106,14.572c-14.402,4.283-19.704,13.959-12.265,24.235
		c7.439,10.276,26.609,15.712,35.766,15.712c9.156,0,21.745-7.82,24.606-13.352c2.86-5.532,11.524-13.68,11.73-17.548"/>
	<path fill="#FDC722" d="M445.993,142.163c0,0,10.617-0.87,14.173-0.644c3.556,0.227,1.458-7.21-1.689-8.545
		c-3.147-1.336-9.803,2.67-12.483,3.242c-2.681,0.573-6.687,1.217-6.687,1.217"/>
	<path fill="#FDC722" d="M437.086,173.793c0,0,12.033,5.362,25.533,14.841c13.501,9.479,8.922,29.762,6.062,29.635
		c-2.861-0.127-34.334-0.651-46.495-8.687c-12.16-8.035-23.891-18.908-27.324-24.63c-3.434-5.723-4.959-15.529-4.959-15.529"/>
</g>
<g id="Warstwa_4">
	<path fill="#F1552C" d="M388.984,436.736v171.386c0,0,46.922-4.863,72.96-19.742c28.612-14.306,47.495-24.606,54.648-32.045
		c7.153-7.439,23.462-22.89,19.456-46.065c-4.005-23.176-20.601-24.893-28.611-27.468c-8.013-2.575-34.907-6.009-40.916-9.155
		c-6.008-3.147-21.745-12.018-28.325-16.881C431.615,451.9,398.712,431.587,388.984,436.736z"/>
	<path fill="#F1552C" d="M390.128,436.736v171.386c0,0-46.923-4.863-72.96-19.742c-28.612-14.306-47.496-24.606-54.649-32.045
		c-7.153-7.439-23.462-22.89-19.456-46.065c4.005-23.176,20.601-24.893,28.612-27.468c8.011-2.575,34.906-6.009,40.915-9.155
		c6.009-3.147,21.745-12.018,28.326-16.881C347.496,451.9,380.4,431.587,390.128,436.736z"/>
	<path fill="#F1552C" d="M381.183,436.53c0,0,8.714-4.215,21.831,1.464c13.116,5.679,2.421,22.204,2.421,22.204l-23.318,1.431"/>
</g>
<g id="Warstwa_5">
	<path fill="#CE4428" d="M378.839,592.672c72.675-1.431,134.189-56.651,134.189-56.651s-4.577,3.434-15.449,7.153
		c-10.873,3.719-53.791,0.571-63.805-1.999c-10.015-2.571-50.357-10.877-55.222-11.449s-8.011-0.287-26.609,4.292
		c-38.34,18.312-92.703-4.292-92.703-4.292s31.759,31.474,50.357,39.771C328.196,577.794,351.658,592.386,378.839,592.672z"/>
	<path fill="#FDC722" d="M248.029,243.464c0,0-19.351,27.598-23.576,34.324s58.058,31.928,58.058,31.928
		s17.628-28.143,17.628-30.575c0-2.432-2.084-20.151-2.084-20.151"/>
	<path fill="#FDC722" d="M553.922,269.656c0,0,18.742,39.978,20.947,45.796c2.204,5.818-13.106,22.755-23.53,16.501
		c-10.423-6.254-33.193-31.617-36.4-34.744c-3.208-3.127-20.396-18.654-23.441-20.619"/>
</g>
<g id="Warstwa_6">
	<ellipse cx="483.749" cy="439.979" rx="18.312" ry="26.8"/>
	<ellipse fill="#FFFFFF" cx="480.411" cy="452.95" rx="6.009" ry="8.679"/>
	
		<ellipse transform="matrix(0.8262 -0.5634 0.5634 0.8262 -152.7181 350.4458)" fill="#FFFFFF" cx="491.571" cy="422.717" rx="3.243" ry="4.578"/>
	<ellipse cx="290.332" cy="436.735" rx="18.312" ry="26.8"/>
	<ellipse fill="#FFFFFF" cx="293.669" cy="449.707" rx="6.009" ry="8.679"/>
	
		<ellipse transform="matrix(-0.8261 -0.5636 0.5636 -0.8261 279.4851 925.201)" fill="#FFFFFF" cx="282.51" cy="419.473" rx="3.243" ry="4.578"/>
</g>
<g id="Warstwa_7" display="none" opacity="0.9">
	
		<ellipse transform="matrix(-0.9308 0.3654 -0.3654 -0.9308 866.2514 746.2942)" display="inline" fill="#FFFFFF" cx="362.5" cy="455.125" rx="14.499" ry="4.875"/>
</g>
</svg>
