<?xml version="1.0" encoding="utf-8"?>
<!-- Generator: Adobe Illustrator 16.0.0, SVG Export Plug-In . SVG Version: 6.00 Build 0)  -->
<!DOCTYPE svg PUBLIC "-//W3C//DTD SVG 1.1//EN" "http://www.w3.org/Graphics/SVG/1.1/DTD/svg11.dtd">
<svg version="1.1" xmlns="http://www.w3.org/2000/svg" xmlns:xlink="http://www.w3.org/1999/xlink" x="0px" y="0px" width="800px"
	 height="800px" viewBox="0 0 800 800" enable-background="new 0 0 800 800" xml:space="preserve">
<g id="Warstwa_1" display="none">
	
		<image display="inline" overflow="visible" width="276" height="621" xlink:href="B5FC1F3D.jpg"  transform="matrix(2.2292 0 0 2.2292 98.3638 107.8179)">
	</image>
</g>
<g id="dog" display="none">
	<path display="inline" fill="#DA1C5C" d="M360.687,549.447c0,0,5.198,53.908,36.773,54.102
		c31.574,0.192,36.965-54.102,36.965-54.102l-30.034-26.953l-30.034-1.54"/>
	<path display="inline" fill="#E8DDC4" d="M655.641,329.195c-24.645-16.942-58.528-60.069-61.609-79.321
		c-32.345-57.759-77.78-58.529-96.264-52.368c-23.469-29.525-93.079-25.56-120.307-18.833c-0.243,2.689-0.462,5.38-0.611,8.076
		c-0.354,6.405-0.543,12.813-0.56,19.228c-0.004,1.516-0.182,2.917-0.485,4.226l6.064,322.303c0,0,12.703,10.011,25.795,18.482
		s59.299,6.931,87.023-9.241c27.724-16.173,27.724-58.529,27.724-58.529s11.552-9.241,20.022-26.953
		c4.621,33.115,30.805,38.505,30.805,38.505s-1.674,2.575-2.655,4.453c0.351,0.134,0.702,0.267,1.034,0.423
		c0.08,0.022,0.164,0.039,0.244,0.062c4.194-4.131,16.197-18.359,46.044-56.535C684.136,358.458,661.802,348.448,655.641,329.195z"
		/>
	<path display="inline" fill="#E8DDC4" d="M584.02,368.471L546.025,469.91c0,0,5.474,21.476,23.5,28.939
		c0.654,0.199,1.288,0.423,1.885,0.691c19.087,5.147,54.731-48.497,57.142-70.366C630.997,406.977,584.02,368.471,584.02,368.471z"
		/>
	<path display="inline" fill="#E8DDC4" d="M615.432,288.684c0,0,65.398,39.37,48.813,75.82c-16.584,36.45-97.938-4.504-97.938-4.504
		"/>
	<path display="inline" fill="#E8DDC4" d="M666.826,354.648c0,0-42.903,110.239-66.889,127.666
		c-23.986,17.427-62.125-90.74-62.125-90.74"/>
	<path display="inline" fill="#E8DDC4" d="M416.538,178.569c-0.345,0.154-0.699,0.291-1.042,0.454
		c-26.185-6.931-97.806-11.552-121.679,18.482c-18.482-6.161-63.919-5.391-96.264,52.368c-3.081,19.253-36.964,62.379-61.609,79.322
		c-6.162,19.252-28.496,29.263,37.735,113.977c29.411,37.618,41.502,51.992,45.864,56.358c0.017-0.008,0.038-0.012,0.055-0.02
		c0.389-0.221,0.814-0.4,1.274-0.535c-0.993-1.849-2.526-4.205-2.526-4.205s26.184-5.39,30.805-38.506
		c8.471,17.713,20.022,26.954,20.022,26.954s0,42.355,27.724,58.528c27.724,16.172,73.931,17.713,87.023,9.241
		c13.092-8.472,25.795-18.482,25.795-18.482l6.55-348.092l0.827,0.097c0.012-0.063,0.019-0.126,0.029-0.19
		c0.129-0.687,0.265-1.354,0.397-2.006C417.012,181.125,416.688,179.868,416.538,178.569z"/>
	<path display="inline" fill="#E8DDC4" d="M244.404,469.91c0,0-5.673,22.309-24.529,29.359
		c-18.856,7.053-55.551-47.895-57.997-70.093c-2.446-22.2,44.531-60.706,44.531-60.706"/>
	<path display="inline" fill="#E8DDC4" d="M174.998,288.684c0,0-65.398,39.37-48.814,75.82c16.584,36.45,97.938-4.504,97.938-4.504"
		/>
	<path display="inline" fill="#E8DDC4" d="M123.603,354.647c0,0,42.904,110.24,66.89,127.667
		c23.985,17.427,62.124-90.741,62.124-90.741"/>
</g>
<g id="Warstwa_8">
	<rect x="-16.889" y="-21.389" fill="#B0D684" width="845.957" height="857.957"/>
</g>
<g id="Warstwa_3">
	<path fill="#CD9348" d="M401.437,263.071l6.344,385.642c0,0,43.19,2.238,58.303-13.992c15.112-16.232,44.498-46.736,44.498-46.736
		s2.238-17.072,4.757-20.988c2.519-3.92,10.914-17.633,10.635-23.789c-0.28-6.156-2.331-30.502-6.25-40.205
		c-0.373-12.5-1.866-32.461,1.119-38.244c2.985-5.785,11.754-31.721,8.209-51.311c5.597-10.822,7.462-13.247,9.888-14.366
		c2.426-1.12,26.494-13.06,30.971-13.06c4.479,0,28.546-6.53,46.457-2.332c19.029,1.959,30.784,0.28,41.14-7.836
		c10.354-8.116,26.587-25.653,31.624-31.624c5.038-5.97,14.738-15.299,18.097-19.404c3.358-4.104,22.016-23.881,24.627-29.105
		c2.612-5.224,21.922-29.292,11.567-44.404c-10.354-15.112-41.979-21.269-47.296-22.388s-55.411-1.399-67.165,1.399
		c-11.755,2.799-44.684,3.078-65.393,29.011c-6.157,8.023-7.65,16.232-9.143,20.337s-11.94,18.284-14.553,20.149
		c-2.611,1.866-21.641,12.687-24.44,12.687c-2.798,0-2.798-68.098-2.239-83.583c0.561-15.485-1.679-62.501-6.903-76.681
		c-5.224-14.179-22.575-29.291-44.404-23.321c-21.828,5.97-20.896,14.925-19.59,36.568c1.308,21.642,5.971,33.021,5.037,44.962
		C446.4,222.396,432.034,262.328,401.437,263.071z"/>
	<path fill="#CD9348" d="M402.556,263.071l-6.343,385.642c0,0-43.191,2.238-58.304-13.992
		c-15.112-16.232-44.497-46.736-44.497-46.736s-2.239-17.072-4.757-20.988c-2.519-3.92-10.915-17.633-10.634-23.789
		c0.279-6.156,2.332-30.502,6.25-40.205c0.373-12.5,1.866-32.461-1.12-38.244c-2.985-5.785-11.754-31.721-8.209-51.311
		c-5.597-10.822-7.461-13.247-9.888-14.366c-2.426-1.12-26.493-13.06-30.971-13.06c-4.478,0-28.545-6.53-46.456-2.332
		c-19.03,1.959-30.784,0.28-41.139-7.836c-10.355-8.116-26.587-25.653-31.625-31.624c-5.037-5.97-14.738-15.299-18.096-19.404
		c-3.358-4.104-22.016-23.881-24.627-29.105c-2.611-5.224-21.922-29.292-11.567-44.404c10.354-15.112,41.978-21.269,47.295-22.388
		s55.412-1.399,67.166,1.399c11.753,2.799,44.683,3.078,65.392,29.011c6.157,8.023,7.65,16.232,9.143,20.337
		c1.492,4.104,11.94,18.284,14.552,20.149c2.612,1.866,21.642,12.687,24.441,12.687c2.798,0,2.798-68.098,2.238-83.583
		c-0.56-15.485,1.679-62.501,6.903-76.681c5.225-14.179,22.576-29.291,44.404-23.321c21.829,5.97,20.896,14.925,19.59,36.568
		c-1.306,21.642-5.97,33.021-5.038,44.962C357.592,222.396,371.958,262.328,402.556,263.071z"/>
	<path fill="#CD9348" d="M396.213,648.713l13.247,0.105c0,0,26.119-297.313,27.238-305.148s0-35.262-7.275-41.418
		c-7.276-6.157-29.666-19.59-34.703-19.59s-21.269,15.672-29.105,35.821c-7.836,20.15-22.389,54.292-26.306,90.674
		c-3.918,36.381-11.754,114.182-11.754,119.777c0,5.598,8.956,83.398,8.956,83.398l48.695,33.023"/>
</g>
<g id="Warstwa_4">
	<path fill="#82471E" d="M544.442,355.704c0,0,1.586,11.846,0,16.138c-1.584,4.292,0.095,4.292-2.704,6.904
		c-2.798,2.612-2.984,3.73-3.171,5.783c-0.188,2.053-0.934,3.918-0.747,4.478c0.187,0.559,0.373,0.559,2.799,0
		c2.426-0.56,4.292-1.679,7.463-4.104c3.172-2.426,7.276-6.343,11.194-7.836c3.918-1.493,19.963-4.105,28.918-0.933
		c8.956,3.172,41.606-0.419,52.613-3.568c11.007-3.148,34.142-16.955,37.873-22.738c3.732-5.783,19.403-27.239,22.948-28.732
		c3.546-1.493,27.239-31.437,29.759-37.594c2.519-6.157,12.873-19.31,6.716-27.706c-6.156-8.396-17.911-13.713-24.627-14.273
		c-6.717-0.56-50.654-7.836-65.486-2.519s-45.617,12.594-56.531,25.467c-10.915,12.874-14.133,28.686-15.393,42.398
		c-1.259,13.713-4.897,22.948-8.535,27.706c-3.639,4.757-17.491,17.771-19.869,19.17
		C545.282,355.144,544.442,355.704,544.442,355.704z"/>
	<path fill="#82471E" d="M261.106,355.704c0,0-1.585,11.846,0,16.137c1.585,4.292-0.094,4.292,2.705,6.905
		c2.798,2.611,2.984,3.729,3.171,5.783s0.934,3.918,0.747,4.478c-0.187,0.559-0.373,0.559-2.799,0
		c-2.426-0.56-4.292-1.679-7.463-4.104c-3.171-2.427-7.276-6.344-11.195-7.836c-3.917-1.494-19.962-4.106-28.917-0.934
		c-8.956,3.172-41.606-0.419-52.613-3.568c-11.007-3.148-34.141-16.956-37.874-22.738s-19.403-27.239-22.948-28.732
		c-3.545-1.493-27.239-31.437-29.758-37.594c-2.519-6.157-12.873-19.31-6.716-27.706s17.911-13.713,24.627-14.273
		c6.716-0.56,50.654-7.836,65.486-2.519c14.833,5.317,45.617,12.594,56.532,25.467c10.914,12.874,14.132,28.686,15.392,42.398
		c1.259,13.713,4.897,22.948,8.536,27.706c3.638,4.757,17.491,17.771,19.87,19.17S261.106,355.704,261.106,355.704z"/>
</g>
<g id="Warstwa_5">
	<path d="M481.756,408.316c0,0,13.992-31.064,35.541-30.924s22.948,9.375,19.59,22.388c-3.358,13.012-5.877,12.454-9.096,14.692
		c-3.218,2.24-23.787,7.697-31.763,4.197c-7.977-3.498-14.624-8.211-14.272-9.654"/>
	
		<ellipse transform="matrix(-0.9181 -0.3963 0.3963 -0.9181 847.2765 986.5012)" fill="#FFFFFF" cx="525.542" cy="405.729" rx="4.993" ry="8.467"/>
	<circle fill="#FFFFFF" cx="527.897" cy="391.349" r="3.324"/>
	<path fill="none" stroke="#000000" stroke-width="2" stroke-miterlimit="10" d="M533.203,381.798c0,0,26.491,17.422,38.525,19.103"
		/>
	<path fill="none" stroke="#000000" stroke-width="2" stroke-miterlimit="10" d="M536.887,388.447c0,0,16.651,13.432,21.129,14.973"
		/>
	<path fill="none" stroke="#000000" stroke-width="2" stroke-miterlimit="10" d="M544.304,402.58
		c-5.038-1.959-8.396-6.647-8.396-6.647s-14.363-14.061-12.92-16.068"/>
	<path d="M323.063,409.436c0,0-13.993-31.063-35.542-30.924c-21.549,0.14-22.948,9.375-19.59,22.389
		c3.358,13.011,5.877,12.453,9.095,14.693c3.218,2.238,23.788,7.695,31.764,4.197c7.976-3.498,14.624-8.213,14.273-9.654"/>
	
		<ellipse transform="matrix(0.9181 -0.3963 0.3963 0.9181 -138.3709 143.9962)" fill="#FFFFFF" cx="279.277" cy="406.848" rx="4.992" ry="8.467"/>
	<circle fill="#FFFFFF" cx="276.921" cy="392.469" r="3.324"/>
	<path fill="none" stroke="#000000" stroke-width="2" stroke-miterlimit="10" d="M271.614,382.917c0,0-26.491,17.424-38.525,19.102"
		/>
	<path fill="none" stroke="#000000" stroke-width="2" stroke-miterlimit="10" d="M267.932,389.566c0,0-16.652,13.434-21.129,14.973"
		/>
	<path fill="none" stroke="#000000" stroke-width="2" stroke-miterlimit="10" d="M260.516,403.699
		c5.037-1.959,8.396-6.646,8.396-6.646s14.363-14.062,12.919-16.068"/>
</g>
<g id="Warstwa_6">
	<path d="M419.161,517.369c0,0,16.231-20.898,22.389-22.018c6.156-1.119,24.254,0.002,30.597,11.008
		c6.345,11.01,1.866,28.172-6.529,31.531c-8.396,3.357-27.612,9.889-33.77,8.582C425.691,545.166,412.818,539.197,419.161,517.369z"
		/>
	<path d="M392.488,518.488c0,0-16.231-20.898-22.388-22.018s-24.254,0.002-30.598,11.008c-6.343,11.01-1.866,28.172,6.53,31.531
		c8.396,3.357,27.613,9.889,33.77,8.584C385.959,546.285,398.831,540.316,392.488,518.488z"/>
</g>
<g id="Warstwa_7">
	<path fill="#82471E" d="M507.922,328.558c0,0-5.736,2.239-6.437,3.778c-0.7,1.54-0.14,2.799,1.679,4.618
		c1.819,1.819,5.291,3.778,6.843,2.238c1.554-1.539,2.393-2.238,2.112-4.337c-0.279-2.099,0.141-3.358-0.839-4.198
		C510.3,329.817,507.922,328.558,507.922,328.558z"/>
	<path fill="#82471E" d="M492.949,346.095c-1.571,0.233-1.772-0.093-1.866,1.679c-0.093,1.772-0.84,2.519,1.307,2.612
		s3.077,1.959,3.451,0C496.215,348.428,495.468,345.722,492.949,346.095z"/>
	<path fill="#82471E" d="M519.069,348.054c-1.299-0.165-2.52-0.636-2.892,0.615c-0.373,1.251-1.306,1.449-0.373,2.61
		c0.933,1.16,0.746,1.72,2.519,1.813c1.771,0.093,2.239,1.306,2.612,0c0.372-1.306,0.559-0.622,0.559-2.316
		s-0.187-3.021-0.466-2.917S520.423,348.226,519.069,348.054z"/>
	<path fill="#82471E" d="M460.859,434.158c-0.82,1.053-1.493,0.932-1.585,1.771c-0.094,0.84-0.747,0.652,0.791,1.586
		c1.54,0.934,2.38,1.773,2.939,0.654c0.56-1.121,0.56-1.738,0.56-1.738S461.514,433.318,460.859,434.158z"/>
	<path fill="#82471E" d="M461.793,446.004c-1.492,0.094-1.866,0.188-2.239,1.586c-0.373,1.4-2.672,0.375-0.496,2.24
		c2.175,1.863-0.344,1.213,2.735,2.236c3.078,1.027,4.104,1.775,4.385,0c0.279-1.771,0.932-0.236,0.373-2.496
		c-0.561-2.26-0.281-3.1-1.68-3.566c-1.399-0.467-1.585,0.094-2.052,0S461.793,446.004,461.793,446.004z"/>
	<path fill="#82471E" d="M459.647,465.967c-1.586,0.84-1.493-0.84-2.053,1.68c-0.56,2.518-0.881,2.238,0.539,4.385
		s-1.316,2.52,3.176,2.799c4.494,0.279,4.868,2.238,5.986,0c1.12-2.238,2.891-1.367,1.306-3.902c-1.585-2.533,0-2.068-2.238-3.188
		c-2.239-1.121-1.525-0.932-3.188-1.121c-1.663-0.186-1.755-0.652-2.222-0.652S459.647,465.967,459.647,465.967z"/>
	<path fill="#82471E" d="M494.208,453.137c-1.679-2.143,2.239-1.861-2.378-2.842s-2.799-1.219-6.437-0.818
		c-3.638,0.398-2.799,0.697-5.457,1.738c-2.659,1.039-3.995-1.061-4.797,3.137c-0.801,4.199-2.06,3.5-0.66,6.578
		c1.398,3.078,1.259,5.457,3.917,5.037c2.659-0.42,3.359,2.098,4.338-1.26c0.979-3.357-0.07-4.197,1.295-5.736
		c1.364-1.539,0.944-1.82,2.764-2.1c1.818-0.279,2.238-0.279,3.778-0.559C492.109,456.031,494.208,453.137,494.208,453.137z"/>
	<path fill="#82471E" d="M502.186,470.928c-1.96-4.541,0.279-5.102-2.8-4.961c-3.078,0.141-1.399-1.494-4.197,2.473
		c-2.799,3.965-2.938,1.305-3.778,5.502c-0.839,4.199-0.979,5.738,0,8.816s1.539,0.561,3.499,5.598c1.958,5.037,0,6.311,3.077,7.773
		c3.079,1.461,3.779,2.453,5.317,0c1.539-2.457,2.799-4.275,3.219-7.215c0.419-2.938-0.42-1.119,0-5.457
		c0.419-4.338,1.643-2.938,0.121-6.436c-1.52-3.5-1.101-3.422-2.779-4.758S502.186,470.928,502.186,470.928z"/>
	<path fill="#82471E" d="M510.007,455.053c-1.971,1.996-3.624-0.908-3.624,2.836c0,3.74-1.354,3.041,1.002,5.559
		c2.356,2.52,2.495,3.41,4.035,3.035c1.539-0.375,2.099,0.744,2.938-2.055s2.938-2.1,1.539-5.318
		C514.499,455.893,511.114,453.932,510.007,455.053z"/>
	<path fill="#82471E" d="M513.845,511.307c-1.355-5.156,1.586-4.385-0.466-6.438c-2.053-2.053-1.213-4.293-4.478-1.4
		c-3.266,2.891-5.225-0.094-4.105,6.623s1.492,8.77,3.358,9.143S514.313,513.078,513.845,511.307z"/>
	<path fill="#82471E" d="M514.132,527.465c-2.433,0-3.551-1.189-4.041,1.26s-0.63,2.59,0.42,4.268c1.05,1.68,1.05,4.898,3.008,2.799
		C515.478,533.691,514.132,527.465,514.132,527.465z"/>
	<path fill="#82471E" d="M296.062,327.438c0,0,5.737,2.239,6.436,3.778c0.7,1.539,0.141,2.798-1.679,4.618
		c-1.819,1.819-5.291,3.778-6.843,2.239c-1.552-1.539-2.392-2.239-2.112-4.338c0.28-2.099-0.14-3.358,0.839-4.198
		C293.683,328.697,296.062,327.438,296.062,327.438z"/>
	<path fill="#82471E" d="M311.034,344.976c1.573,0.232,1.773-0.094,1.866,1.679c0.093,1.773,0.839,2.519-1.306,2.612
		c-2.146,0.094-3.078,1.959-3.452,0C307.769,347.308,308.515,344.603,311.034,344.976z"/>
	<path fill="#82471E" d="M284.915,346.935c1.298-0.164,2.519-0.636,2.891,0.615c0.373,1.251,1.306,1.449,0.373,2.61
		c-0.933,1.16-0.747,1.72-2.519,1.813c-1.772,0.094-2.239,1.306-2.612,0c-0.373-1.306-0.56-0.622-0.56-2.317
		c0-1.694,0.187-3.021,0.467-2.917C283.235,346.842,283.56,347.106,284.915,346.935z"/>
	<path fill="#82471E" d="M343.124,433.037c0.821,1.055,1.493,0.934,1.586,1.773c0.093,0.84,0.747,0.652-0.792,1.586
		s-2.378,1.773-2.938,0.652c-0.56-1.119-0.56-1.738-0.56-1.738S342.47,432.197,343.124,433.037z"/>
	<path fill="#82471E" d="M342.191,444.885c1.492,0.092,1.866,0.188,2.239,1.586c0.373,1.398,2.672,0.375,0.496,2.238
		c-2.175,1.865,0.344,1.213-2.735,2.24c-3.078,1.025-4.105,1.773-4.385,0s-0.933-0.238-0.373-2.498c0.56-2.26,0.28-3.1,1.68-3.566
		c1.399-0.467,1.585,0.092,2.052,0C341.631,444.791,342.191,444.885,342.191,444.885z"/>
	<path fill="#82471E" d="M344.337,464.848c1.585,0.84,1.492-0.84,2.052,1.68c0.56,2.518,0.881,2.238-0.539,4.385
		c-1.42,2.145,1.316,2.52-3.177,2.799c-4.493,0.279-4.867,2.238-5.987,0s-2.89-1.367-1.305-3.902c1.585-2.535,0-2.068,2.238-3.189
		c2.239-1.117,1.525-0.93,3.188-1.117s1.756-0.654,2.222-0.654C343.498,464.848,344.337,464.848,344.337,464.848z"/>
	<path fill="#82471E" d="M309.774,452.018c1.679-2.143-2.238-1.863,2.379-2.842c4.618-0.98,2.799-1.219,6.437-0.818
		c3.638,0.398,2.798,0.697,5.457,1.738c2.658,1.039,3.994-1.061,4.796,3.137c0.801,4.199,2.061,3.5,0.661,6.578
		s-1.259,5.457-3.918,5.037s-3.358,2.1-4.338-1.26c-0.979-3.357,0.07-4.197-1.294-5.736c-1.364-1.539-0.944-1.82-2.764-2.1
		c-1.818-0.279-2.238-0.279-3.778-0.561C311.874,454.912,309.774,452.018,309.774,452.018z"/>
	<path fill="#82471E" d="M301.799,469.809c1.958-4.541-0.28-5.102,2.798-4.961c3.079,0.139,1.399-1.494,4.198,2.473
		c2.798,3.965,2.938,1.305,3.778,5.502c0.839,4.199,0.979,5.738,0,8.816c-0.979,3.078-1.54,0.561-3.499,5.598
		c-1.958,5.037,0,6.309-3.078,7.771c-3.079,1.463-3.778,2.455-5.317,0c-1.539-2.455-2.798-4.273-3.218-7.213
		c-0.42-2.938,0.42-1.119,0-5.457s-1.642-2.938-0.122-6.436s1.101-3.422,2.78-4.758
		C301.799,469.809,301.799,469.809,301.799,469.809z"/>
	<path fill="#82471E" d="M293.976,453.932c1.971,1.996,3.625-0.906,3.625,2.836s1.354,3.043-1.002,5.561
		c-2.356,2.52-2.496,3.408-4.035,3.035c-1.54-0.377-2.099,0.744-2.938-2.055s-2.938-2.1-1.539-5.318
		C289.485,454.771,292.869,452.813,293.976,453.932z"/>
	<path fill="#82471E" d="M290.138,510.186c1.356-5.154-1.585-4.383,0.467-6.438c2.052-2.051,1.212-4.291,4.478-1.398
		c3.265,2.891,5.224-0.094,4.105,6.623c-1.12,6.717-1.493,8.77-3.359,9.141C293.962,518.488,289.671,511.959,290.138,510.186z"/>
	<path fill="#82471E" d="M289.851,526.346c2.432,0,3.552-1.189,4.042,1.26c0.49,2.447,0.63,2.588-0.419,4.268
		c-1.049,1.678-1.049,4.898-3.009,2.799C288.505,532.572,289.851,526.346,289.851,526.346z"/>
</g>
</svg>
