<?xml version="1.0" encoding="utf-8"?>
<!-- Generator: Adobe Illustrator 16.0.0, SVG Export Plug-In . SVG Version: 6.00 Build 0)  -->
<!DOCTYPE svg PUBLIC "-//W3C//DTD SVG 1.1//EN" "http://www.w3.org/Graphics/SVG/1.1/DTD/svg11.dtd">
<svg version="1.1" xmlns="http://www.w3.org/2000/svg" xmlns:xlink="http://www.w3.org/1999/xlink" x="0px" y="0px" width="800px"
	 height="800px" viewBox="0 0 800 800" enable-background="new 0 0 800 800" xml:space="preserve">
<g id="Warstwa_2" display="none">
	
		<image overflow="visible" width="1024" height="1024" xlink:href="F134B57D.jpg"  transform="matrix(0.7084 0 0 0.7084 37.3032 28.3042)">
	</image>
	<path display="inline" fill="#FFFFFF" stroke="#000000" stroke-width="6" stroke-miterlimit="10" d="M335.333,533
		c0,0,61,41.667,131.667,0"/>
</g>
<g id="dog" display="none">
	<path display="inline" fill="#DA1C5C" d="M360.687,549.447c0,0,5.198,53.908,36.773,54.102
		c31.574,0.192,36.965-54.102,36.965-54.102l-30.034-26.953l-30.034-1.54"/>
	<path display="inline" fill="#E8DDC4" d="M655.641,329.195c-24.645-16.942-58.528-60.069-61.609-79.321
		c-32.345-57.759-77.78-58.529-96.264-52.368c-23.469-29.525-93.079-25.56-120.307-18.833c-0.243,2.689-0.462,5.38-0.611,8.076
		c-0.354,6.405-0.543,12.813-0.56,19.228c-0.004,1.516-0.182,2.917-0.485,4.226l6.064,322.303c0,0,12.703,10.011,25.795,18.482
		s59.299,6.931,87.023-9.241c27.724-16.173,27.724-58.529,27.724-58.529s11.552-9.241,20.022-26.953
		c4.621,33.115,30.805,38.505,30.805,38.505s-1.674,2.575-2.655,4.453c0.351,0.134,0.702,0.267,1.034,0.423
		c0.08,0.022,0.164,0.039,0.244,0.062c4.194-4.131,16.197-18.359,46.044-56.535C684.136,358.458,661.802,348.448,655.641,329.195z"
		/>
	<path display="inline" fill="#E8DDC4" d="M584.02,368.471L546.025,469.91c0,0,5.474,21.476,23.5,28.939
		c0.654,0.199,1.288,0.423,1.885,0.691c19.087,5.147,54.731-48.497,57.142-70.366C630.997,406.977,584.02,368.471,584.02,368.471z"
		/>
	<path display="inline" fill="#E8DDC4" d="M615.432,288.684c0,0,65.398,39.37,48.813,75.82c-16.584,36.45-97.938-4.504-97.938-4.504
		"/>
	<path display="inline" fill="#E8DDC4" d="M666.826,354.648c0,0-42.903,110.239-66.889,127.666
		c-23.986,17.427-62.125-90.74-62.125-90.74"/>
	<path display="inline" fill="#E8DDC4" d="M416.538,178.569c-0.345,0.154-0.699,0.291-1.042,0.454
		c-26.185-6.931-97.806-11.552-121.679,18.482c-18.482-6.161-63.919-5.391-96.264,52.368c-3.081,19.253-36.964,62.379-61.609,79.322
		c-6.162,19.252-28.496,29.263,37.735,113.977c29.411,37.618,41.502,51.992,45.864,56.358c0.017-0.008,0.038-0.012,0.055-0.02
		c0.389-0.221,0.814-0.4,1.274-0.535c-0.993-1.849-2.526-4.205-2.526-4.205s26.184-5.39,30.805-38.506
		c8.471,17.713,20.022,26.954,20.022,26.954s0,42.355,27.724,58.528c27.724,16.172,73.931,17.713,87.023,9.241
		c13.092-8.472,25.795-18.482,25.795-18.482l6.55-348.092l0.827,0.097c0.012-0.063,0.019-0.126,0.029-0.19
		c0.129-0.687,0.265-1.354,0.397-2.006C417.012,181.125,416.688,179.868,416.538,178.569z"/>
	<path display="inline" fill="#E8DDC4" d="M244.404,469.91c0,0-5.673,22.309-24.529,29.359
		c-18.856,7.053-55.551-47.895-57.997-70.093c-2.446-22.2,44.531-60.706,44.531-60.706"/>
	<path display="inline" fill="#E8DDC4" d="M174.998,288.684c0,0-65.398,39.37-48.814,75.82c16.584,36.45,97.938-4.504,97.938-4.504"
		/>
	<path display="inline" fill="#E8DDC4" d="M123.603,354.647c0,0,42.904,110.24,66.89,127.667
		c23.985,17.427,62.124-90.741,62.124-90.741"/>
</g>
<g id="Warstwa_13">
	
		<rect x="-19.888" y="-21.389" fill="#FDF27A" stroke="#000000" stroke-width="4" stroke-miterlimit="10" width="848.958" height="877.456"/>
</g>
<g id="Warstwa_3">
	<path fill="#BCBCBC" d="M388.55,172.808c0,0,41.334-1.197,94.047,26.957c11.08-19.168,53.312-55.708,87.754-52.115
		c12.88,21.865,32.348,59.603,21.564,108.123c-10.781,48.521-25.456,64.693-25.157,68.586c0.898,5.691,3.295,21.265,8.386,26.956
		s21.264,20.366,26.356,24.859c5.092,4.493,24.56,21.265,28.753,40.135c4.193,18.87,9.585,45.523-9.284,78.77
		c-18.869,33.245-38.337,55.108-53.613,65.893c-15.274,10.782-68.886,47.619-125.193,56.308c-54.81,5.389-54.81,4.49-56.606,4.49"/>
	<path fill="#BCBCBC" d="M388.851,172.808c0,0-41.333-1.197-94.045,26.957c-11.082-19.168-53.312-55.708-87.756-52.115
		c-12.879,21.865-32.347,59.603-21.564,108.123c10.782,48.521,25.457,64.693,25.158,68.586c-0.898,5.691-3.295,21.265-8.386,26.956
		c-5.092,5.691-21.265,20.366-26.357,24.859c-5.092,4.493-24.559,21.265-28.752,40.135c-4.194,18.87-9.584,45.523,9.285,78.77
		c18.868,33.245,38.337,55.108,53.612,65.893c15.275,10.782,68.886,47.619,125.193,56.308c54.81,5.389,54.81,4.49,56.607,4.49"/>
</g>
<g id="Warstwa_9">
	<path fill="#FFFFFF" d="M390.132,172.208c0,0-33.888,2.135-42.927,7.132c-9.038,4.998,17.167,117.463,15.67,147.713
		c2.696,27.854,4.493,53.012-8.086,75.177c-12.58,22.165-30.848,32.942-76.074,32.942s-59.078,2.998-70.759,5.244
		c-11.681,2.247-63.504,15.065-62.552,20.268c0.952,5.205,12.935,41.382,22.805,51.664c8.972,12.979,18.307,24.87,18.307,24.87
		l9.711,10.691c0,0,45.048,33.112,58.272,39.862c13.223,6.756,65.472,26.161,65.472,26.161l42.788,5.831l30.366,1.904"/>
	<path fill="#FFFFFF" d="M633.277,460.685c0,0-3.136,26.038-16.166,41.802c-13.028,15.764-19.654-9.169-19.654-9.169l-36.166-28.303
		"/>
	<path fill="#FFFFFF" d="M615.361,505.581c0,0-12.277,18.801-14.343,20.396c-2.064,1.596-13.146-9.036-13.146-9.036
		s3.895-14.976,4.193-15.874c0.3-0.898,10.184-6.74,10.184-6.74"/>
	<path fill="#FFFFFF" d="M146.409,459.071l-2.276,1.678c0,0,5.368,30.784,14.656,38.417c9.287,7.63,21.979-6.072,21.979-6.072
		l-1.685-18.307"/>
	<path fill="#FFFFFF" d="M177.634,525.501l-0.865,0.999c0,0-15.358-18.667-18.484-27.777c-3.125-9.112,9.117-14.838,9.117-14.838
		s1.797-1.688,4.043,0.897c2.247,2.583,7.3,6.962,7.3,6.962"/>
	<rect x="362.792" y="507.713" fill="#FFFFFF" width="13.777" height="22.705"/>
</g>
<g id="Warstwa_7">
	<path fill="#FFFFFF" d="M388.55,172.208c0,0,33.887,2.135,42.926,7.132c9.039,4.998-17.166,117.463-15.67,147.713
		c-2.695,27.854-4.492,53.012,8.087,75.177c12.579,22.165,30.849,32.942,76.074,32.942c45.227,0,59.078,2.998,70.759,5.244
		c11.681,2.247,63.504,15.065,62.552,20.268c-0.952,5.205-12.935,41.382-22.805,51.664c-8.973,12.979-18.308,24.87-18.308,24.87
		l-9.71,10.691c0,0-45.05,33.112-58.272,39.862c-13.224,6.756-65.473,26.161-65.473,26.161l-42.788,5.831l-30.366,1.904"/>
</g>
<g id="Warstwa_8">
	<path fill="#BCBCBC" d="M388.55,433.229c0,0,36.391-1.799,41.333,8.085c4.043,10.333,0.448,22.914,14.824,30.102
		c14.377,7.187,33.695,13.479,45.826,13.479c12.13,0,43.128-8.537,60.649-2.248c17.521,6.292,29.203,6.74,38.637,24.261
		c9.435,17.522,11.169,15.678,11.199,19.07c-1.503,2.001-9.514,11.494-13.972,16.762c-1.787,2.107-3.005,3.539-3.005,3.539
		s-42.741,33.768-83.928,52.787c-14.696,6.782-29.193,11.692-41.479,12.52c-17.369,4.963-27.193,7.286-35.68,8.393
		c-11.483,1.502-20.516,0.778-42.482,1.366"/>
	<path fill="#BCBCBC" d="M382.722,621.287c0,0,76.27-0.451,104.17-16.644c27.9-16.193,8.807-45.171,8.807-45.171l-28.752-7.415
		l-29.202-8.309l-9.209,10.33"/>
	<path fill="#BCBCBC" d="M587.047,542.739c0,0-54.985,56.857-106.374,64.949"/>
	<path fill="#BCBCBC" d="M421.89,620.11c0,0,57.479-6.293,93.537-24.181c36.056-17.889-13.354-26.872-13.354-26.872l-45.835-14.078"
		/>
	<path fill="#BCBCBC" d="M390.104,433.229c0,0-36.391-1.799-41.333,8.085c-4.043,10.333-0.449,22.914-14.826,30.102
		c-14.376,7.187-33.694,13.479-45.824,13.479c-12.13,0-43.129-8.537-60.65-2.248c-17.521,6.292-29.202,6.74-38.636,24.261
		c-9.435,17.522-11.168,15.678-11.2,19.07c1.504,2.001,9.514,11.494,13.973,16.762c1.786,2.107,3.003,3.539,3.003,3.539
		s42.742,33.768,83.928,52.787c14.696,6.782,29.193,11.692,41.479,12.52c17.37,4.963,27.195,7.286,35.68,8.393
		c11.485,1.502,20.516,0.778,42.484,1.366"/>
	<path fill="#BCBCBC" d="M395.931,621.287c0,0-76.269-0.451-104.169-16.644c-27.901-16.193-8.807-45.171-8.807-45.171l28.752-7.415
		l29.202-8.309l9.21,10.33"/>
	<path fill="#BCBCBC" d="M191.607,542.739c0,0,54.986,56.857,106.375,64.949"/>
	<path fill="#BCBCBC" d="M356.762,620.11c0,0-57.479-6.293-93.535-24.181c-36.057-17.889,13.352-26.872,13.352-26.872l45.834-14.078
		"/>
</g>
<g id="Warstwa_4">
	<path fill="#F7956A" d="M520.184,227.243c0,0,7.638-50.991,45.151-60.65c9.435,21.34,16.847,40.208,16.622,53.911
		c-0.225,13.702-0.225,65.143-18.421,82.665C553.653,273.742,540.625,235.554,520.184,227.243z"/>
	<path fill="#F7956A" d="M260.292,227.243c0,0-7.638-50.991-45.151-60.65c-9.434,21.34-16.848,40.208-16.623,53.911
		c0.225,13.702,0.225,65.143,18.419,82.665C226.821,273.742,239.85,235.554,260.292,227.243z"/>
</g>
<g id="Warstwa_5">
	<path fill="#F7956A" d="M389.111,477.481c0,0-31.673-21.452-29.876-27.519c1.797-6.063,13.702-11.68,32.011-10.219"/>
	<path fill="#F7956A" d="M388.888,477.481c0,0,31.672-21.452,29.875-27.519c-1.797-6.063-13.703-11.68-32.01-10.219"/>
</g>
<g id="Warstwa_6">
	<circle cx="474.059" cy="364.641" r="31.598"/>
	<circle fill="#FFFFFF" cx="458.71" cy="352.736" r="6.963"/>
	<circle fill="#FFFFFF" cx="469.867" cy="365.541" r="4.193"/>
	<circle cx="303.939" cy="364.641" r="31.598"/>
	<circle fill="#FFFFFF" cx="288.59" cy="352.736" r="6.964"/>
	<circle fill="#FFFFFF" cx="299.747" cy="365.541" r="4.193"/>
</g>
<g id="Warstwa_10">
</g>
<g id="Warstwa_11">
	<polyline fill="#FFFFFF" points="372.976,527.5 372.976,562.391 386.79,562.391 386.79,527.5 	"/>
	<polyline fill="#FFFFFF" points="391.171,527.5 391.171,562.391 404.985,562.391 404.985,527.5 	"/>
</g>
<g id="Warstwa_12">
	<path fill="none" stroke="#000000" stroke-width="4" stroke-miterlimit="10" d="M329.397,511.85c0,0,54.81,37.439,118.305,0"/>
</g>
</svg>
