<?xml version="1.0" encoding="utf-8"?>
<!-- Generator: Adobe Illustrator 16.0.0, SVG Export Plug-In . SVG Version: 6.00 Build 0)  -->
<!DOCTYPE svg PUBLIC "-//W3C//DTD SVG 1.1//EN" "http://www.w3.org/Graphics/SVG/1.1/DTD/svg11.dtd">
<svg version="1.1" xmlns="http://www.w3.org/2000/svg" xmlns:xlink="http://www.w3.org/1999/xlink" x="0px" y="0px" width="800px"
	 height="800px" viewBox="0 0 800 800" enable-background="new 0 0 800 800" xml:space="preserve">
<g id="Warstwa_2">
	
		<image display="none" overflow="visible" width="600" height="573" xlink:href="10FF7B68.jpg"  transform="matrix(1.6833 0 0 1.7504 -96.4072 20)">
	</image>
</g>
<g id="Warstwa_10">
	<rect x="-18.389" y="-13.889" fill="#F4DEEC" width="839.958" height="829.458"/>
</g>
<g id="dog" display="none">
	<path display="inline" fill="#DA1C5C" d="M360.687,549.447c0,0,5.198,53.908,36.773,54.102
		c31.574,0.192,36.965-54.102,36.965-54.102l-30.034-26.953l-30.034-1.54"/>
	<path display="inline" fill="#E8DDC4" d="M655.641,329.195c-24.645-16.942-58.528-60.069-61.609-79.321
		c-32.345-57.759-77.78-58.529-96.264-52.368c-23.469-29.525-93.079-25.56-120.307-18.833c-0.243,2.689-0.462,5.38-0.611,8.076
		c-0.354,6.405-0.543,12.813-0.56,19.228c-0.004,1.516-0.182,2.917-0.485,4.226l6.064,322.303c0,0,12.703,10.011,25.795,18.482
		s59.299,6.931,87.023-9.241c27.724-16.173,27.724-58.529,27.724-58.529s11.552-9.241,20.022-26.953
		c4.621,33.115,30.805,38.505,30.805,38.505s-1.674,2.575-2.655,4.453c0.351,0.134,0.702,0.267,1.034,0.423
		c0.08,0.022,0.164,0.039,0.244,0.062c4.194-4.131,16.197-18.359,46.044-56.535C684.136,358.458,661.802,348.448,655.641,329.195z"
		/>
	<path display="inline" fill="#E8DDC4" d="M584.02,368.471L546.025,469.91c0,0,5.474,21.476,23.5,28.939
		c0.654,0.199,1.288,0.423,1.885,0.691c19.087,5.147,54.731-48.497,57.142-70.366C630.997,406.977,584.02,368.471,584.02,368.471z"
		/>
	<path display="inline" fill="#E8DDC4" d="M615.432,288.684c0,0,65.398,39.37,48.813,75.82c-16.584,36.45-97.938-4.504-97.938-4.504
		"/>
	<path display="inline" fill="#E8DDC4" d="M666.826,354.648c0,0-42.903,110.239-66.889,127.666
		c-23.986,17.427-62.125-90.74-62.125-90.74"/>
	<path display="inline" fill="#E8DDC4" d="M416.538,178.569c-0.345,0.154-0.699,0.291-1.042,0.454
		c-26.185-6.931-97.806-11.552-121.679,18.482c-18.482-6.161-63.919-5.391-96.264,52.368c-3.081,19.253-36.964,62.379-61.609,79.322
		c-6.162,19.252-28.496,29.263,37.735,113.977c29.411,37.618,41.502,51.992,45.864,56.358c0.017-0.008,0.038-0.012,0.055-0.02
		c0.389-0.221,0.814-0.4,1.274-0.535c-0.993-1.849-2.526-4.205-2.526-4.205s26.184-5.39,30.805-38.506
		c8.471,17.713,20.022,26.954,20.022,26.954s0,42.355,27.724,58.528c27.724,16.172,73.931,17.713,87.023,9.241
		c13.092-8.472,25.795-18.482,25.795-18.482l6.55-348.092l0.827,0.097c0.012-0.063,0.019-0.126,0.029-0.19
		c0.129-0.687,0.265-1.354,0.397-2.006C417.012,181.125,416.688,179.868,416.538,178.569z"/>
	<path display="inline" fill="#E8DDC4" d="M244.404,469.91c0,0-5.673,22.309-24.529,29.359
		c-18.856,7.053-55.551-47.895-57.997-70.093c-2.446-22.2,44.531-60.706,44.531-60.706"/>
	<path display="inline" fill="#E8DDC4" d="M174.998,288.684c0,0-65.398,39.37-48.814,75.82c16.584,36.45,97.938-4.504,97.938-4.504"
		/>
	<path display="inline" fill="#E8DDC4" d="M123.603,354.647c0,0,42.904,110.24,66.89,127.667
		c23.985,17.427,62.124-90.741,62.124-90.741"/>
</g>
<g id="Warstwa_3">
	<path fill="#B2B3B3" d="M397.223,166.311c0,0,37.797-3.508,60.444,8.612c26.154,10.207,36.36,19.457,37.158,21.211
		c3.19-7.655,31.579-47.204,42.264-50.553s29.663-13.237,44.813,8.612c11.323,21.849,7.018,44.018,0.639,56.297
		c-6.38,12.28-23.444,25.515-30.143,28.226s-24.4,1.914-26.314,0.957c3.508,6.379,13.556,33.65,16.746,43.538
		s14.513,38.275,29.823,49.758c15.31,11.482,41.782,40.189,50.714,57.413c8.932,17.225,19.777,43.059,13.716,75.911
		c-6.061,32.854-21.211,59.808-37,78.228c-15.788,18.421-61.56,57.015-96.646,67.222s-75.413,15.63-97.99,14.673
		C382.87,625.458,397.223,166.311,397.223,166.311z"/>
	<path fill="#B2B3B3" d="M402.777,166.311c0,0-37.797-3.508-60.444,8.612c-26.155,10.207-36.361,19.457-37.159,21.211
		c-3.19-7.655-31.579-47.204-42.263-50.553s-29.664-13.237-44.814,8.612c-11.323,21.849-7.018,44.018-0.638,56.297
		s23.444,25.515,30.142,28.226s24.4,1.914,26.314,0.957c-3.508,6.379-13.555,33.65-16.746,43.538s-14.513,38.275-29.823,49.758
		c-15.31,11.482-41.783,40.189-50.714,57.413s-19.777,43.058-13.716,75.911c6.061,32.854,21.211,59.808,37,78.228
		c15.789,18.421,61.56,57.015,96.646,67.222c35.086,10.207,75.413,15.63,97.991,14.673S402.777,166.311,402.777,166.311z"/>
	<path fill="#B2B3B3" d="M385.977,626.491c0,0,28.01,0.111,28.949,0.032c0.938-0.078,10.047-20.283,10.047-20.283
		s-7.895-8.373-14.354-11.482c-6.459-3.11-10.19-3.589-17.894-3.589c-7.703,0-7.225,0-12.009,0"/>
</g>
<g id="Warstwa_4">
	<path fill="#8B8B8B" d="M511.412,213.837c0,0,18.659-40.827,29.186-43.698c10.525-2.871,20.414-1.755,25.039,3.667
		c4.624,5.423,7.494,14.513,7.813,19.457s-14.034,12.28-19.138,15.151s-24.72,7.655-29.982,10.207
		c-5.263,2.552-7.655,4.944-7.655,4.944S513.008,214.316,511.412,213.837z"/>
	<path fill="#8B8B8B" d="M288.78,213.837c0,0-18.659-40.827-29.185-43.698s-20.414-1.755-25.039,3.667
		c-4.625,5.423-7.495,14.513-7.814,19.457c-0.32,4.944,14.035,12.28,19.138,15.151s24.719,7.655,29.982,10.207
		c5.263,2.552,7.655,4.944,7.655,4.944S287.186,214.316,288.78,213.837z"/>
</g>
<g id="Warstwa_6">
	<path fill="#BCBCBC" d="M275.06,561.346c0,0,20.094,28.069,74.956,39.552c54.862,11.483,130.137,0.956,143.534-7.975
		s31.577-29.344,36.042-36.999c4.466-7.655-52.628-40.509-57.094-40.827c-4.465-0.318-75.275-3.828-75.275-3.828H321.31
		l-24.56,21.052"/>
</g>
<g id="Warstwa_7">
	<path fill="#FFFFFF" d="M279.765,562.941v14.831c0,0,3.349,7.177,11.004,9.33s19.377,0,19.377,0s9.33-5.263,10.287-7.177
		s1.196-22.009,1.196-22.009"/>
	<path fill="#FFFFFF" d="M306.079,566.529c0.957-1.914,1.196-22.009,1.196-22.009"/>
	<path fill="#FFFFFF" d="M529.273,562.463v14.831c0,0-3.349,7.177-11.004,9.33s-19.377,0-19.377,0s-9.33-5.263-10.287-7.177
		s-1.195-22.009-1.195-22.009"/>
</g>
<g id="Warstwa_5">
	<path fill="#C6C6C5" d="M402.486,315.585c0,0,66.822,0.16,82.771,3.987c11.164,0,50.236,5.103,89.229,36.441
		c9.809,7.416,29.903,18.66,41.864,53.347c4.066,22.487,5.502,52.15-4.545,78.704c-10.048,26.554-27.032,44.734-32.534,50.476
		c-5.503,5.742-27.989,24.641-50.955,27.75c-22.965,3.11-63.394-1.436-74.158-4.306c-10.766-2.871-28.229-7.895-37.559-7.655
		c-9.329,0.239-14.113,0.239-14.113,0.239"/>
	<path fill="#C6C6C5" d="M402.49,315.585c0,0-66.822,0.16-82.771,3.987c-11.164,0-50.237,5.103-89.23,36.441
		c-9.808,7.416-29.903,18.66-41.864,53.347c-4.067,22.487-5.502,52.15,4.545,78.704s27.032,44.734,32.534,50.476
		c5.502,5.742,27.989,24.641,50.955,27.75c22.965,3.11,63.394-1.436,74.159-4.306c10.765-2.871,28.229-7.895,37.558-7.655
		s14.114,0.239,14.114,0.239"/>
</g>
<g id="Warstwa_8">
	<ellipse cx="530.23" cy="401.546" rx="30.62" ry="32.534"/>
	<ellipse cx="263.897" cy="404.735" rx="30.62" ry="32.534"/>
</g>
<g id="Warstwa_9">
	
		<ellipse transform="matrix(0.9785 -0.2061 0.2061 0.9785 -49.4913 75.6975)" fill="#FFFFFF" cx="338.614" cy="275.415" rx="25.519" ry="40.07"/>
	<ellipse fill="#55A4DA" cx="342.441" cy="293.099" rx="17.942" ry="18.659"/>
	<ellipse cx="343.039" cy="293.932" rx="14.433" ry="14.245"/>
	<circle fill="#FFFFFF" cx="332.959" cy="302.776" r="3.15"/>
	
		<ellipse transform="matrix(0.9789 0.2043 -0.2043 0.9789 64.0417 -65.5184)" fill="#FFFFFF" cx="349.273" cy="277.342" rx="5.995" ry="9.09"/>
	
		<ellipse transform="matrix(-0.9785 -0.2061 0.2061 -0.9785 871.3135 641.587)" fill="#FFFFFF" cx="469.071" cy="275.415" rx="25.519" ry="40.07"/>
	<ellipse fill="#55A4DA" cx="465.244" cy="293.099" rx="17.941" ry="18.659"/>
	<ellipse cx="464.646" cy="293.932" rx="14.433" ry="14.245"/>
	<circle fill="#FFFFFF" cx="474.726" cy="302.776" r="3.15"/>
	
		<ellipse transform="matrix(-0.9789 0.2043 -0.2043 -0.9789 963.8223 455.1651)" fill="#FFFFFF" cx="458.412" cy="277.342" rx="5.996" ry="9.09"/>
</g>
</svg>
